<?xml version="1.0" encoding="utf-8"?>
<!-- Generator: Adobe Illustrator 26.0.0, SVG Export Plug-In . SVG Version: 6.00 Build 0)  -->
<svg version="1.1" id="Layer_1" xmlns="http://www.w3.org/2000/svg" xmlns:xlink="http://www.w3.org/1999/xlink" x="0px" y="0px"
	 viewBox="0 0 1403.6 878.8" style="enable-background:new 0 0 1403.6 878.8;" xml:space="preserve">
<style type="text/css">
	.st0{fill:#DAB7B5;fill-opacity:0.11;stroke:#7F0000;}
	.st1{fill:#D21002;stroke:#000000;stroke-width:3;stroke-opacity:0;}
	.st2{fill:#FFFFFF;stroke:#000000;stroke-width:3;stroke-opacity:0;}
	.st3{fill:none;stroke:#000000;stroke-width:3;stroke-opacity:0.67;}
	.st4{fill:#333333;fill-opacity:0.8;}
	.st5{fill:none;stroke:#5E5E5E;stroke-width:3;}
	.st6{fill:#5E5E5E;stroke:#5E5E5E;stroke-width:5.000000e-02;}
	.st7{fill:#5E5E5E;}
	.st8{fill:#000B1D;stroke:#000000;stroke-width:0.64;stroke-opacity:0;}
	.st9{fill:#FA0F00;stroke:#000000;stroke-width:0.64;stroke-opacity:0;}
	.st10{fill:#E5E5E5;stroke:#000000;stroke-width:0.64;stroke-opacity:0;}
	.st11{fill:none;stroke:#5E5E5E;stroke-width:2;}
	.st12{fill:#5E5E5E;stroke:#5E5E5E;stroke-width:2;}
	.st13{enable-background:new    ;}
	.st14{fill:#333333;}
	.st15{fill:#000B1D;}
	.st16{fill:#FFFFFF;}
</style>
<g id="Layer_1_00000051363846700788083230000005919388982139315616_" xmlns:lucid="lucid">
	<path class="st0" d="M314.6,628.9c0-3.3,2.7-6,6-6h383.2c3.3,0,6,2.7,6,6v223.9c0,3.3-2.7,6-6,6H320.6c-3.3,0-6-2.7-6-6V628.9z"/>
	<path class="st1" d="M327.1,644.7c0-3.3,2.7-6,6-6h358.2c3.3,0,6,2.7,6,6v128.4c0,3.3-2.7,6-6,6H333.1c-3.3,0-6-2.7-6-6V644.7z"/>
	<path class="st2" d="M349.5,687.3c0-3.3,2.7-6,6-6h145.7c3.3,0,6,2.7,6,6v70.3c0,3.3-2.7,6-6,6H355.5c-3.3,0-6-2.7-6-6V687.3z"/>
	<path class="st2" d="M516.8,687.6c0-3.3,2.7-6,6-6h145.7c3.3,0,6,2.7,6,6v25.6c0,3.3-2.7,6-6,6H522.8c-3.3,0-6-2.7-6-6V687.6z"/>
	<path class="st2" d="M516.8,731.9c0-3.3,2.7-6,6-6h145.7c3.3,0,6,2.7,6,6v25.6c0,3.3-2.7,6-6,6H522.8c-3.3,0-6-2.7-6-6V731.9z"/>
	<path class="st1" d="M327.1,789.1c0-3.3,2.7-6,6-6h358.2c3.3,0,6,2.7,6,6v45.4c0,3.3-2.7,6-6,6H333.1c-3.3,0-6-2.7-6-6V789.1z"/>
	<path class="st1" d="M316,419.9c0-3.3,2.7-6,6-6h842.2c3.3,0,6,2.7,6,6v91.4c0,3.3-2.7,6-6,6H322c-3.3,0-6-2.7-6-6V419.9z"/>
	<path class="st2" d="M884.9,467.1c0-3.3,2.7-6,6-6l0,0h243.3c3.3,0,6,2.7,6,6l0,0v29.3c0,3.3-2.7,6-6,6H890.9c-3.3,0-6-2.7-6-6
		V467.1z"/>
	<path class="st2" d="M614.9,467.1c0-3.3,2.7-6,6-6l0,0h243.3c3.3,0,6,2.7,6,6l0,0v29.3c0,3.3-2.7,6-6,6H620.9c-3.3,0-6-2.7-6-6
		V467.1z"/>
	<path class="st3" d="M817.6,301.7H668.3"/>
	<path class="st4" d="M89.5,801.6c-11.1,0-20,3.8-20,8.1c0,4.5,8.9,8.1,20,8.1s20-3.6,20-8.1C109.5,805.4,100.6,801.6,89.5,801.6
		L89.5,801.6z M69.6,815.5v8.8c0,3.5,8.9,7.4,20,7.4s20-4.1,20-7.6l-0.1-8.7c-2.5,4.6-9.9,6.5-19.8,6.5S72.6,820,70,815.4
		L69.6,815.5z M69.6,829.4v20.4c0,3.5,8.9,7.4,20,7.4s20-4.1,20-7.5l-0.1-20.3c-2.6,4.6-9.9,6.5-19.8,6.5S72.5,834,70,829.4
		L69.6,829.4z M799,224.5c1,0,1.5,0.9,1.5,1.6c0,1-0.6,1.6-1.5,1.6h-3.1c-0.8,0-1.5-0.6-1.5-1.6c0-0.8,0.7-1.6,1.5-1.6H799z
		 M812.4,231c0.4,0,0.5,0.4,0.5,1v47.2c0,0.4-0.2,0.6-0.6,0.6h-29.5c-0.6,0-1-0.2-1-0.6v-47.1c0-0.6,0.4-1,1-1L812.4,231z
		 M797.4,282.2c2.3,0,4.1,1.8,4.1,4c0,2.4-1.7,4.3-4.1,4.3c-2.1,0-3.9-1.9-3.9-4.3C793.6,284,795.3,282.2,797.4,282.2L797.4,282.2z
		 M778.8,218c0,0-3.1,0-3.1,3.3v71.5c0,3.3,3.1,3.3,3.1,3.3h37.3c0,0,3.1,0,3.1-3.3v-71.5c0-3.3-3.1-3.3-3.1-3.3L778.8,218z
		 M725.5,231c0.4,0,0.6,0.4,0.6,1v30.9c0,0.4-0.2,1-0.8,1h-41.7c-0.5-0.4-1-0.6-1-1V232c0-0.6,0.4-1,1-1H725.5z M713.1,276.5
		c0.4,0,1,0.4,1,0.8l1.2,4.8c0,0.6-0.2,0.8-0.6,0.8h-20.2c-0.2,0-0.6-0.2-0.6-0.6l1.2-4.9c0-0.6,0.4-1,1-1L713.1,276.5z
		 M681.1,224.5c-2.3,0-4.6,2.5-4.6,4.8v35.8l-9.3,22.8v1.6c0,0,0,3.3,3.1,3.3h68.2c3.1,0,3.1-3.3,3.1-3.3v-1.6l-9.3-22.8v-35.7
		c0-2.4-2.2-4.8-4.6-4.8L681.1,224.5z"/>
	<path class="st4" d="M115.8,695.3H115c0-4.2-2-8-5.1-10.4c-3.2-2.4-7.4-3-11.1-1.6c-3.1-6.3-9.9-9.5-16.4-7.9s-11.2,7.7-11.2,14.8
		v0.2c-4.5-0.7-8.9,1.2-11.8,4.9c-2.7,3.8-3.2,8.9-1.2,13.1c1.9,4.2,5.9,7.1,10.4,7.3l0,0h47.1c5.3,0,9.7-4.6,9.7-10.2
		C125.4,700,121.1,695.3,115.8,695.3L115.8,695.3z"/>
	<path class="st2" d="M345,467.1c0-3.3,2.7-6,6-6l0,0h243.3c3.3,0,6,2.7,6,6l0,0v29.3c0,3.3-2.7,6-6,6H351c-3.3,0-6-2.7-6-6V467.1z"
		/>
	<path class="st1" d="M819.2,625.8c0-3.3,2.7-6,6-6h339.1c3.3,0,6,2.7,6,6v98.6c0,3.3-2.7,6-6,6H825.2c-3.3,0-6-2.7-6-6V625.8z"/>
	<path class="st5" d="M161.2,609.2v246.6 M161.2,609.2v-1.5 M161.2,855.8v1.5"/>
	<path class="st6" d="M220.8,738.5h-58.6v-2h58.5L220.8,738.5z M295.7,738.5h-41v-2h41V738.5z"/>
	<path class="st7" d="M310.9,737.5l-14.3,4.6v-9.3L310.9,737.5z"/>
	<path class="st6" d="M314.2,737.5l-18.5,6v-12L314.2,737.5z M297.7,740.8l10-3.3l-10-3.2V740.8z M162.3,738.5h-1v-2h1V738.5z"/>
	<path class="st8" d="M324.4,570H355c5.6,0,8.4,3,8.4,9.1v31.7c0,6-2.8,9.1-8.4,9.1h-30.6c-5.6,0-8.4-3-8.4-9.1v-31.7
		C316,573,318.8,570,324.4,570z"/>
	<path class="st9" d="M353,607.5h-5.6c-0.5,0-1-0.3-1.2-0.8l-6.1-15.4c0-0.1-0.1-0.2-0.1-0.2c-0.1-0.1-0.3,0-0.3,0.1l-3.9,9.8v0.1
		c0,0.2,0.1,0.3,0.3,0.3h4.2c0.2,0,0.5,0.2,0.6,0.5l1.9,4.4c0.1,0.4,0,0.9-0.4,1.1c-0.1,0-0.2,0-0.3,0h-15.2c-0.4,0-0.7-0.4-0.7-0.8
		c0-0.1,0-0.2,0.1-0.3l9.7-24.9c0.2-0.5,0.7-0.8,1.2-0.8h5.6c0.6,0,1,0.3,1.2,0.8l9.8,24.9c0.1,0.4,0,0.8-0.4,1
		C353.1,607.5,353.1,607.5,353,607.5L353,607.5z"/>
	<path class="st10" d="M820.9,597.1h30.7c5.6,0,8.4,3,8.4,9.1v31.7c0,6-2.8,9.1-8.4,9.1h-30.7c-5.6,0-8.4-3-8.4-9.1v-31.7
		C812.5,600.1,815.3,597.1,820.9,597.1L820.9,597.1z"/>
	<path class="st9" d="M849.4,634.6h-5.6c-0.5,0-1-0.3-1.2-0.8l-6.1-15.4c0-0.1-0.1-0.2-0.2-0.2c-0.1-0.1-0.3,0-0.3,0.2l-3.9,9.8v0.1
		c0,0.2,0.1,0.3,0.3,0.3h4.2c0.2,0.1,0.5,0.2,0.6,0.5l1.8,4.4c0.1,0.5,0,0.9-0.4,1.1c-0.2,0-0.2,0-0.3,0h-15.2
		c-0.4,0-0.7-0.4-0.7-0.8c0-0.1,0.1-0.2,0.1-0.3l9.7-24.9c0.2-0.5,0.7-0.8,1.2-0.8h5.6c0.6,0,1,0.3,1.2,0.8l9.8,24.9
		c0.1,0.4,0,0.8-0.3,1C849.6,634.6,849.5,634.6,849.4,634.6L849.4,634.6z"/>
	<path class="st8" d="M310.7,396.1h30.7c5.6,0,8.4,3,8.4,9.1v31.7c0,6-2.8,9.1-8.4,9.1h-30.7c-5.6,0-8.4-3-8.4-9.1v-31.7
		C302.3,399.1,305.1,396.1,310.7,396.1z"/>
	<path class="st9" d="M339.2,433.6h-5.6c-0.5,0-1-0.3-1.2-0.8l-6.1-15.4c0-0.1-0.1-0.2-0.1-0.2c-0.1,0-0.3,0-0.3,0.1l-3.9,9.8v0.1
		c0,0.2,0.1,0.4,0.3,0.4h4.2c0.2,0,0.5,0.2,0.6,0.5l1.9,4.4c0.1,0.4,0,0.9-0.4,1.1c-0.1,0-0.2,0-0.3,0h-15.2c-0.4,0-0.7-0.4-0.7-0.8
		c0-0.1,0-0.2,0.1-0.3l9.7-24.9c0.2-0.5,0.7-0.8,1.2-0.8h5.6c0.6,0,1,0.3,1.2,0.8l9.8,24.9c0.1,0.4,0,0.8-0.4,1
		C339.3,433.6,339.3,433.6,339.2,433.6L339.2,433.6z"/>
	<path class="st6" d="M605.8,606.1h-2V570h2V606.1z M605.7,547.7h-2v-29.4h2V547.7z"/>
	<path class="st7" d="M605.7,518.4h-2v-1h2V518.4z"/>
	<path class="st6" d="M605.8,518.4h-2v-1.1h2.1L605.8,518.4z M603.8,517.4v1h2v-1H603.8z"/>
	<path class="st7" d="M604.8,621.4l-4.6-14.3h9.3L604.8,621.4z"/>
	<path class="st6" d="M604.8,624.6l-6-18.5h12L604.8,624.6z M601.5,608.1l3.3,10l3.3-10H601.5z"/>
	<path class="st6" d="M680.5,621.4h-2v-13h2V621.4z M680.6,535.8v28.1h-2v-28.1H680.6z"/>
	<path class="st7" d="M684.2,534.8h-9.3l4.7-14.3L684.2,534.8z"/>
	<path class="st6" d="M685.6,535.8h-12l6-18.5L685.6,535.8z M676.3,533.8h6.5l-3.2-10L676.3,533.8z"/>
	<path class="st7" d="M680.5,621.4v1h-2v-1H680.5z"/>
	<path class="st6" d="M680.5,621.4v1.1h-2v-1.1H680.5z M678.5,622.4h2v-1h-2V622.4z"/>
	<path class="st11" d="M885.9,518.3v114.9c0,3.3,2.7,6,6,6h22.5c3.3,0,6-2.7,6-6v-97.4"/>
	<path class="st6" d="M886.9,518.3h-2v-1h2V518.3z"/>
	<path class="st12" d="M920.4,520.5l4.6,14.3h-9.3L920.4,520.5z"/>
	<path class="st11" d="M725.7,395.5v-91"/>
	<path class="st12" d="M725.7,410.7l-4.6-14.3h9.3L725.7,410.7z"/>
	<path class="st6" d="M726.7,304.5h-2v-1.3h2V304.5z"/>
	<path class="st11" d="M763.9,413v-91"/>
	<path class="st6" d="M764.9,414h-2v-1h2V414z"/>
	<path class="st12" d="M763.9,306.7l4.6,14.3h-9.3L763.9,306.7z"/>
	<path class="st8" d="M32.4,30h45.4c8.3,0,12.4,4.3,12.4,12.8v44.7c0,8.5-4.2,12.8-12.4,12.8H32.5C24.2,100.3,20,96,20,87.5V42.8
		C20,34.3,24.2,30,32.4,30L32.4,30z"/>
	<path class="st9" d="M74.7,82.9h-8.4c-0.8,0-1.4-0.4-1.8-1.1l-9-21.8c0-0.2-0.1-0.3-0.2-0.3c-0.2-0.1-0.4,0-0.5,0.2l-5.7,13.9v0.1
		c0,0.3,0.2,0.5,0.5,0.5h6.2c0.3,0,0.7,0.3,0.8,0.6l2.7,6.2c0.2,0.6,0,1.3-0.6,1.6c-0.1,0.1-0.3,0.1-0.5,0.1H35.7
		c-0.6,0-1-0.5-1-1.1c0-0.1,0.1-0.3,0.1-0.4l14.3-35.1c0.3-0.8,1-1.2,1.8-1.2h8.3c0.8,0,1.6,0.4,1.8,1.2l14.5,35.1
		c0.2,0.6,0,1.1-0.6,1.4C74.9,82.9,74.8,82.9,74.7,82.9L74.7,82.9z"/>
</g>
<g id="Layer_2_00000141425388128222982800000014768143291446377634_">
	<g class="st13">
		<path class="st14" d="M118.6,81.5c-3.1,1.4-6.9,2.8-11.2,4.2l-0.7-1.7c2.6-0.7,6.4-2.1,11.3-4.2L118.6,81.5z M119,62.3
			c-3.3,6.1-6.3,10.8-9,14.2c2.2-0.5,4.8-1.4,8-2.5l0.6,1.5c-2.8,1.1-6.4,2.3-10.7,3.5l-0.6-1.6c2.6-3.2,4.9-6.5,6.9-10
			c-2.2,0.6-4.2,1.1-6,1.5l-0.6-1.7c2.5-3.7,4.5-7.6,6.1-11.7l1.7,0.6c-1.5,3.6-3.3,7.1-5.5,10.5c1.6-0.3,3.5-0.7,5.6-1.4l2.1-3.8
			L119,62.3z M137.6,79.9c-0.4,1.6-0.9,3-1.5,4.1c-0.6,1.1-1.1,1.8-1.5,2.1c-0.4,0.2-0.9,0.4-1.3,0.4c-1.7,0-3.4-1.7-5.1-5.2
			c-3.1,2.2-6.6,3.8-10.3,4.9l-0.9-1.6c4.2-1.3,7.6-2.9,10.5-4.9c-0.8-2.4-1.4-5-1.8-7.9l-6.9,0.9l-0.3-1.7l7-0.8
			c-0.2-2.2-0.4-4-0.4-5.4l-5.1,0.5l-0.3-1.7l5.3-0.6l-0.1-7.1l1.7-0.2c0.1,3.6,0.1,5.9,0.2,7.1l9.3-1.1l0.2,1.7l-9.4,1
			c0,1.3,0.2,3.1,0.4,5.4l10-1.1l0.2,1.8l-9.9,1.1c0.2,2.5,0.7,4.8,1.5,6.8c1.5-1.3,3.2-3.1,5.1-5.4l1.5,1c-1.9,2.4-3.9,4.4-5.9,6.1
			c0.8,1.7,1.6,2.8,2.2,3.6c0.6,0.7,1.1,1.1,1.4,1.1c0.3,0,0.5-0.1,0.7-0.3c0.2-0.2,0.4-0.7,0.8-1.5c0.4-0.8,0.8-2,1.3-3.7
			L137.6,79.9z M134.8,59.6l-1.2,1.3c-1.4-1.3-2.7-2.4-4-3.2l1.2-1.3C132.3,57.4,133.6,58.5,134.8,59.6z"/>
		<path class="st14" d="M172.4,85.4H142v-1.8h13.1V55.6h1.9v11h13.9v1.8h-13.9v15.1h15.5V85.4z"/>
		<path class="st14" d="M189.4,58l-12.7,30.9h-2.6L186.7,58H189.4z"/>
		<path class="st14" d="M203.2,81.5c-3.1,1.4-6.9,2.8-11.2,4.2l-0.7-1.7c2.6-0.7,6.4-2.1,11.3-4.2L203.2,81.5z M203.6,62.3
			c-3.3,6.1-6.3,10.8-9,14.2c2.2-0.5,4.8-1.4,8-2.5l0.6,1.5c-2.8,1.1-6.4,2.3-10.7,3.5l-0.6-1.6c2.6-3.2,4.9-6.5,6.9-10
			c-2.2,0.6-4.2,1.1-6,1.5l-0.6-1.7c2.5-3.7,4.5-7.6,6.1-11.7l1.7,0.6c-1.5,3.6-3.3,7.1-5.5,10.5c1.6-0.3,3.5-0.7,5.6-1.4l2.1-3.8
			L203.6,62.3z M222.2,79.9c-0.4,1.6-0.9,3-1.5,4.1c-0.6,1.1-1.1,1.8-1.5,2.1c-0.4,0.2-0.9,0.4-1.3,0.4c-1.7,0-3.4-1.7-5.1-5.2
			c-3.1,2.2-6.6,3.8-10.3,4.9l-0.9-1.6c4.2-1.3,7.6-2.9,10.5-4.9c-0.8-2.4-1.4-5-1.8-7.9l-6.9,0.9l-0.3-1.7l7-0.8
			c-0.2-2.2-0.4-4-0.4-5.4l-5.1,0.5l-0.3-1.7l5.3-0.6l-0.1-7.1l1.7-0.2c0.1,3.6,0.1,5.9,0.2,7.1l9.3-1.1l0.2,1.7l-9.4,1
			c0,1.3,0.2,3.1,0.4,5.4l10-1.1l0.2,1.8l-9.9,1.1c0.2,2.5,0.7,4.8,1.5,6.8c1.5-1.3,3.2-3.1,5.1-5.4l1.5,1c-1.9,2.4-3.9,4.4-5.9,6.1
			c0.8,1.7,1.6,2.8,2.2,3.6c0.6,0.7,1.1,1.1,1.4,1.1c0.3,0,0.5-0.1,0.7-0.3c0.2-0.2,0.4-0.7,0.8-1.5c0.4-0.8,0.8-2,1.3-3.7
			L222.2,79.9z M219.4,59.6l-1.2,1.3c-1.4-1.3-2.7-2.4-4-3.2l1.2-1.3C216.9,57.4,218.2,58.5,219.4,59.6z"/>
		<path class="st14" d="M257,58.3h-15.9v7.5c6.1,3.2,10.2,5.8,12.4,7.7l-1.1,1.7c-3-2.5-6.7-4.9-11.2-7.3v18.3h-1.9V58.3h-12.6v-1.9
			H257V58.3z"/>
		<path class="st14" d="M292.3,69.6l-1.1,1.6c-6.4-3.4-11.2-7.6-14.4-12.5c-3.6,5.3-8.4,9.5-14.3,12.4l-1.2-1.4
			c7.2-3.6,12.3-8.3,15.3-14.3l1.6,0.7c-0.1,0.3-0.2,0.6-0.4,0.9C281.1,62.1,285.9,66.4,292.3,69.6z M277.7,86.2h-1.9V64.8h1.9V86.2
			z"/>
		<path class="st14" d="M300.1,63.4c-0.4,3.3-1,6.2-1.8,8.5l-1.8-0.5c0.8-2.5,1.4-5.2,1.7-8.2L300.1,63.4z M307.5,66.6l-1.1,1.3
			c-1-1.2-1.9-2.1-2.8-2.9v21.1h-1.8V55.6h1.8v7.1C304.9,63.9,306.2,65.2,307.5,66.6z M326.9,85.4h-20v-1.8h9.8v-9.1h-8.1v-1.8h8.1
			V65h-5.1c-0.9,2.3-1.9,4.3-3,6l-1.5-0.9c2.3-4,3.9-8.1,4.5-12.2l1.8,0.4c-0.3,1.9-0.7,3.5-1.2,4.9h4.4v-7.4h1.9v7.4h7.7V65h-7.7
			v7.7h6.9v1.8h-6.9v9.1h8.3V85.4z"/>
		<path class="st14" d="M341.7,56c-0.5,1.3-1.1,2.9-2.1,4.9l-1.4,3v22.4h-1.9V67.2c-1,1.6-2.2,3.3-3.6,4.9l-1.3-1.5
			c3.1-3.6,5.9-8.6,8.4-15.1L341.7,56z M362.1,78.1c0,1.8-0.2,3.4-0.5,4.9c-0.3,1.5-1,2.4-2,2.6c-1,0.2-3.8,0.3-8.3,0.3
			c-1.1,0-2,0-2.8,0c-0.8,0-1.4-0.3-1.8-0.8s-0.7-1.1-0.7-1.9V55.5h1.9v11.9h13.6v1.8h-13.6v13.9c0,0.2,0.1,0.4,0.2,0.6
			c0.2,0.2,0.3,0.3,0.6,0.3c0.2,0,1,0,2.3,0c4.7,0,7.4-0.1,8.1-0.3c0.7-0.2,1.1-2.3,1.2-6.4L362.1,78.1z"/>
		<path class="st14" d="M385.6,75h-10.1v-2.3h10.1V75z"/>
		<path class="st14" d="M419,84.5h-3.5l-4.4-7.5c-0.9-1.6-1.8-2.6-2.6-3.1c-0.8-0.5-1.7-0.7-2.7-0.7h-2.6v11.3h-2.9V58h7.8
			c2.4,0,4.4,0.6,5.8,1.9c1.4,1.2,2.2,3,2.2,5.2c0,3.7-2,6-5.9,7.1v0.1c0.7,0.3,1.3,0.7,1.8,1.2c0.5,0.5,1.2,1.5,2.1,3L419,84.5z
			 M403.2,60.7v9.7h4.3c1.6,0,2.9-0.5,3.9-1.4c1-0.9,1.5-2.2,1.5-3.8c0-1.4-0.5-2.6-1.4-3.4c-0.9-0.8-2.3-1.2-4-1.2H403.2z"/>
		<path class="st14" d="M436.4,75.7H423c0.1,2.2,0.6,3.8,1.7,5s2.6,1.7,4.5,1.7c2.1,0,4.1-0.7,5.9-2.1v2.7c-1.7,1.2-3.8,1.8-6.6,1.8
			c-2.6,0-4.7-0.9-6.2-2.6c-1.5-1.7-2.3-4.1-2.3-7.3c0-2.9,0.8-5.2,2.5-7.1c1.6-1.9,3.7-2.8,6.2-2.8c2.4,0,4.3,0.8,5.7,2.4
			c1.4,1.6,2,3.8,2,6.7V75.7z M433.4,73.2c0-1.8-0.4-3.2-1.3-4.1c-0.8-1-2-1.5-3.5-1.5c-1.4,0-2.6,0.5-3.6,1.5c-1,1-1.7,2.4-2,4.1
			H433.4z"/>
		<path class="st14" d="M441.4,66.9c1.9-1.2,4-1.8,6.4-1.8c4.4,0,6.6,2.3,6.6,7v12.4h-2.9v-3h-0.1c-1.3,2.3-3.2,3.4-5.8,3.4
			c-1.9,0-3.3-0.5-4.4-1.5c-1.1-1-1.6-2.3-1.6-4c0-3.5,2.1-5.5,6.2-6.1l5.7-0.8c0-3.3-1.3-4.9-3.9-4.9c-2.3,0-4.3,0.8-6.2,2.3V66.9z
			 M446.9,75.5c-1.6,0.2-2.7,0.6-3.4,1.2c-0.6,0.6-0.9,1.4-0.9,2.6c0,0.9,0.3,1.7,1,2.3c0.7,0.6,1.6,0.9,2.7,0.9
			c1.5,0,2.8-0.5,3.8-1.6c1-1.1,1.5-2.4,1.5-4.1v-1.9L446.9,75.5z"/>
		<path class="st14" d="M460.2,84.5v-28h2.8v28H460.2z"/>
		<path class="st14" d="M478.9,75h-10.1v-2.3h10.1V75z"/>
		<path class="st14" d="M492.9,84.3c-0.7,0.4-1.6,0.6-2.8,0.6c-3.2,0-4.9-1.8-4.9-5.5V68H482v-2.5h3.3v-4.6l2.8-0.9v5.6h4.8V68h-4.8
			v10.9c0,1.3,0.2,2.2,0.6,2.8c0.4,0.5,1.2,0.8,2.2,0.8c0.8,0,1.4-0.2,2-0.6V84.3z"/>
		<path class="st14" d="M496.7,58.8c0-0.5,0.2-1,0.5-1.4c0.4-0.4,0.8-0.6,1.3-0.6c0.5,0,1,0.2,1.4,0.6c0.4,0.4,0.6,0.8,0.6,1.3
			c0,0.5-0.2,0.9-0.6,1.3c-0.4,0.4-0.8,0.6-1.4,0.6c-0.5,0-1-0.2-1.3-0.5C496.8,59.7,496.7,59.3,496.7,58.8z M497.1,84.5V65.6h2.8
			v18.9H497.1z"/>
		<path class="st14" d="M532.8,84.5h-2.9V73.6c0-2.2-0.3-3.8-1-4.7c-0.7-0.9-1.8-1.4-3.3-1.4c-1.3,0-2.4,0.6-3.3,1.8
			c-0.9,1.2-1.4,2.6-1.4,4.3v10.8H518V73.2c0-3.8-1.5-5.7-4.4-5.7c-1.3,0-2.5,0.6-3.3,1.7c-0.9,1.2-1.3,2.6-1.3,4.4v10.8h-2.9V65.6
			h2.9v3h0.1c1.3-2.3,3.3-3.4,5.8-3.4c1.2,0,2.3,0.4,3.3,1.1c1,0.7,1.7,1.7,2,2.9c1.4-2.6,3.5-3.9,6.3-3.9c4.2,0,6.2,2.6,6.2,7.7
			V84.5z"/>
		<path class="st14" d="M553.6,75.7h-13.4c0.1,2.2,0.6,3.8,1.7,5s2.6,1.7,4.5,1.7c2.1,0,4.1-0.7,5.9-2.1v2.7
			c-1.7,1.2-3.8,1.8-6.6,1.8c-2.6,0-4.7-0.9-6.2-2.6c-1.5-1.7-2.3-4.1-2.3-7.3c0-2.9,0.8-5.2,2.5-7.1c1.6-1.9,3.7-2.8,6.2-2.8
			c2.4,0,4.3,0.8,5.7,2.4c1.4,1.6,2,3.8,2,6.7V75.7z M550.7,73.2c0-1.8-0.4-3.2-1.3-4.1c-0.8-1-2-1.5-3.5-1.5
			c-1.4,0-2.6,0.5-3.6,1.5c-1,1-1.7,2.4-2,4.1H550.7z"/>
		<path class="st14" d="M585.4,83.3c-1.9,1-4.4,1.6-7.3,1.6c-3.7,0-6.7-1.2-9-3.7c-2.3-2.4-3.4-5.6-3.4-9.5c0-4.1,1.2-7.5,3.7-10.2
			c2.5-2.7,5.7-4,9.7-4c2.5,0,4.6,0.4,6.2,1.1v3.1c-1.9-1-4-1.6-6.3-1.6c-3.1,0-5.7,1.1-7.5,3.2c-1.9,2.1-2.8,4.8-2.8,8.2
			c0,3.2,0.9,5.7,2.6,7.7c1.8,2,4.1,3,7.1,3c2.7,0,5-0.6,6.9-1.8V83.3z"/>
		<path class="st14" d="M590.8,84.5V58h7.2c9.3,0,14,4.3,14,12.9c0,4.1-1.3,7.4-3.8,9.9c-2.5,2.5-6,3.7-10.5,3.7H590.8z M593.7,60.7
			v21.1h4c3.5,0,6.3-0.9,8.2-2.8c2-1.9,2.9-4.6,2.9-8c0-6.9-3.7-10.3-11-10.3H593.7z"/>
		<path class="st14" d="M620.1,74.4v10h-2.9V58h7.1c2.8,0,4.9,0.7,6.5,2.1c1.6,1.4,2.3,3.3,2.3,5.8c0,2.6-0.9,4.7-2.8,6.3
			c-1.8,1.6-4.1,2.3-6.8,2.3H620.1z M620.1,60.7v11h3.3c2.2,0,3.8-0.5,5-1.5c1.1-1,1.7-2.4,1.7-4.2c0-3.6-2.1-5.3-6.3-5.3H620.1z"/>
		<path class="st14" d="M662.5,74.2l-1.2,1.4c-1.9-2-3.7-3.7-5.5-5v15.8H654V69.9c-2.2,4-4.5,7.3-7.1,9.8l-1.4-1.2
			c2.9-2.8,5.7-6.8,8.4-12.2H646v-1.8h8v-5c-2.5,0.4-4.6,0.6-6.4,0.7l-0.5-1.8c5.4-0.3,10.1-1.2,14-2.6l0.9,1.7
			c-1.4,0.6-3.5,1.2-6.2,1.7v5.4h6.3v1.8h-6.3v2.1C658.9,70.7,661.1,72.6,662.5,74.2z M675.4,86.4h-1.9v-3.3h-7.9v3.3h-1.8V59.7
			h11.6V86.4z M673.5,81.2V61.5h-7.9v19.7H673.5z"/>
		<path class="st14" d="M706.2,60.7h-7.6v23.8h-2.9V60.7H688V58h18.2V60.7z"/>
		<path class="st14" d="M706.4,66.9c1.9-1.2,4-1.8,6.4-1.8c4.4,0,6.6,2.3,6.6,7v12.4h-2.9v-3h-0.1c-1.3,2.3-3.2,3.4-5.8,3.4
			c-1.9,0-3.3-0.5-4.4-1.5c-1.1-1-1.6-2.3-1.6-4c0-3.5,2.1-5.5,6.2-6.1l5.7-0.8c0-3.3-1.3-4.9-3.9-4.9c-2.3,0-4.3,0.8-6.2,2.3V66.9z
			 M711.9,75.5c-1.6,0.2-2.7,0.6-3.4,1.2c-0.6,0.6-0.9,1.4-0.9,2.6c0,0.9,0.3,1.7,1,2.3c0.7,0.6,1.6,0.9,2.7,0.9
			c1.5,0,2.8-0.5,3.8-1.6c1-1.1,1.5-2.4,1.5-4.1v-1.9L711.9,75.5z"/>
		<path class="st14" d="M734.9,68.5c-0.5-0.4-1.3-0.6-2.3-0.6c-1.3,0-2.4,0.6-3.3,1.9c-0.9,1.3-1.3,2.9-1.3,5v9.7h-2.9V65.6h2.9v3.9
			h0.1c0.4-1.3,1.1-2.4,2-3.1c0.9-0.7,1.9-1.1,2.9-1.1c0.8,0,1.4,0.1,1.8,0.3V68.5z"/>
		<path class="st14" d="M753.7,83c0,6.9-3.3,10.4-9.8,10.4c-2.3,0-4.4-0.5-6.1-1.4v-2.9c2.1,1.2,4.2,1.8,6.1,1.8c4.7,0,7-2.5,7-7.5
			v-2.1h-0.1c-1.5,2.4-3.7,3.7-6.5,3.7c-2.4,0-4.3-0.8-5.7-2.5c-1.4-1.7-2.1-3.9-2.1-6.7c0-3.2,0.8-5.8,2.3-7.7
			c1.6-1.9,3.7-2.8,6.3-2.8c2.6,0,4.5,1,5.7,3.1h0.1v-2.6h2.8V83z M750.8,73.1c0-1.5-0.5-2.8-1.6-3.9c-1.1-1.1-2.3-1.6-3.8-1.6
			c-1.9,0-3.4,0.7-4.5,2.1c-1.1,1.4-1.6,3.3-1.6,5.8c0,2.1,0.5,3.9,1.6,5.1c1,1.3,2.4,1.9,4.1,1.9c1.7,0,3.1-0.6,4.2-1.8
			c1.1-1.2,1.7-2.8,1.7-4.7V73.1z"/>
		<path class="st14" d="M774.9,75.7h-13.4c0.1,2.2,0.6,3.8,1.7,5s2.6,1.7,4.5,1.7c2.1,0,4.1-0.7,5.9-2.1v2.7
			c-1.7,1.2-3.8,1.8-6.6,1.8c-2.6,0-4.7-0.9-6.2-2.6c-1.5-1.7-2.3-4.1-2.3-7.3c0-2.9,0.8-5.2,2.5-7.1c1.6-1.9,3.7-2.8,6.2-2.8
			c2.4,0,4.3,0.8,5.7,2.4c1.4,1.6,2,3.8,2,6.7V75.7z M772,73.2c0-1.8-0.4-3.2-1.3-4.1c-0.8-1-2-1.5-3.5-1.5c-1.4,0-2.6,0.5-3.6,1.5
			c-1,1-1.7,2.4-2,4.1H772z"/>
		<path class="st14" d="M788.2,84.3c-0.7,0.4-1.6,0.6-2.8,0.6c-3.2,0-4.9-1.8-4.9-5.5V68h-3.3v-2.5h3.3v-4.6l2.8-0.9v5.6h4.8V68
			h-4.8v10.9c0,1.3,0.2,2.2,0.6,2.8c0.4,0.5,1.2,0.8,2.2,0.8c0.8,0,1.4-0.2,2-0.6V84.3z"/>
	</g>
	<g class="st13">
		<path d="M700.2,184.7c0.5,0.4,1.1,0.8,2,1c0.9,0.3,1.7,0.4,2.4,0.4c2.4,0,3.6-0.9,3.6-2.6c0-0.5-0.1-0.9-0.4-1.3
			c-0.2-0.4-0.6-0.7-1-1c-0.4-0.3-1.2-0.7-2.5-1.4c-1.8-0.9-2.9-1.7-3.4-2.4c-0.5-0.7-0.7-1.4-0.7-2.3c0-1.3,0.5-2.4,1.6-3.1
			c1.1-0.8,2.4-1.2,4-1.2c1.6,0,2.8,0.2,3.5,0.6v2.1c-1-0.7-2.2-1-3.7-1c-1,0-1.9,0.2-2.5,0.7s-1,1.1-1,1.8c0,0.5,0.1,0.9,0.3,1.3
			s0.5,0.7,0.9,0.9c0.4,0.3,1.2,0.7,2.3,1.3c1.6,0.8,2.7,1.6,3.4,2.3c0.6,0.8,1,1.6,1,2.5c0,1.4-0.5,2.5-1.5,3.2
			c-1,0.8-2.4,1.1-4.2,1.1c-0.6,0-1.3-0.1-2.2-0.3c-0.9-0.2-1.5-0.4-1.9-0.7V184.7z"/>
		<path d="M713.3,187.5v-16.3h4.4c5.7,0,8.6,2.6,8.6,7.9c0,2.5-0.8,4.6-2.3,6.1c-1.5,1.5-3.7,2.3-6.5,2.3H713.3z M715.1,172.8v13
			h2.5c2.2,0,3.9-0.6,5.1-1.7c1.2-1.2,1.8-2.8,1.8-4.9c0-4.2-2.3-6.4-6.8-6.4H715.1z"/>
		<path d="M740.8,187.5h-2.5l-6.4-7.5c-0.2-0.3-0.4-0.4-0.4-0.5h-0.1v8h-1.8v-16.3h1.8v7.7h0.1c0.1-0.2,0.2-0.3,0.4-0.5l6.2-7.1h2.2
			l-7.1,7.8L740.8,187.5z"/>
		<path d="M750,171.2l-7.8,19h-1.6l7.8-19H750z"/>
		<path d="M764.4,187.5h-2l-1.8-4.6h-7l-1.7,4.6h-2l6.3-16.3h1.8L764.4,187.5z M760.1,181.2l-2.6-7c-0.1-0.2-0.2-0.6-0.2-1.1h-0.1
			c-0.1,0.5-0.2,0.8-0.3,1.1l-2.6,7H760.1z"/>
		<path d="M768.7,181.3v6.2h-1.8v-16.3h4.4c1.7,0,3,0.4,4,1.3c1,0.8,1.4,2,1.4,3.6c0,1.6-0.6,2.9-1.7,3.9c-1.1,1-2.5,1.4-4.2,1.4
			H768.7z M768.7,172.9v6.8h2c1.3,0,2.4-0.3,3.1-0.9c0.7-0.6,1.1-1.5,1.1-2.6c0-2.2-1.3-3.3-3.9-3.3H768.7z"/>
		<path d="M781.6,187.5h-1.8v-16.3h1.8V187.5z"/>
	</g>
	<g class="st13">
		<path class="st14" d="M642.1,344.9h-1.5c-0.4,1.2-0.8,2-1.3,2.5c1.2,0.5,1.9,0.9,2,0.9L641,349c-0.8-0.4-1.5-0.7-2.2-1
			c-1.1,1-2.4,1.7-4.1,2l-0.5-0.7c1.6-0.4,2.9-0.9,3.8-1.7c-0.8-0.3-1.7-0.6-2.8-1c0.4-0.5,0.8-1.1,1.2-1.8h-2.1v-0.8h2.6l0.8-1.5
			l0.7,0.4c-0.2,0.4-0.4,0.8-0.6,1.1h2.1c0.1-0.2,0.1-0.5,0.2-0.7l0.8,0.2l-0.1,0.6h1.3V344.9z M637.1,340.4
			c-0.7,0.9-1.4,1.6-2.1,2.2l-0.6-0.5c0.7-0.5,1.4-1.2,2.1-2.1L637.1,340.4z M642.1,339.4h-3.3v3h-0.8v-3h-3.5v-0.8h3.5v-3h0.8v3
			h3.3V339.4z M637.2,337.6l-0.6,0.5c-0.6-0.7-1.1-1.3-1.5-1.6l0.6-0.5C636.3,336.5,636.8,337,637.2,337.6z M639.8,344.9h-2.3
			c-0.3,0.4-0.6,0.9-0.9,1.4c0.6,0.2,1.3,0.4,2.1,0.7C639.1,346.5,639.5,345.7,639.8,344.9z M641.7,336.4c-0.5,0.6-1,1.2-1.5,1.6
			l-0.6-0.5c0.5-0.4,1-0.9,1.5-1.6L641.7,336.4z M641.7,341.6l-0.6,0.5c-0.4-0.6-0.9-1.1-1.5-1.7l0.6-0.4
			C640.8,340.5,641.3,341,641.7,341.6z M648.7,349.4l-0.6,0.7c-1.3-0.8-2.4-1.8-3.2-2.9c-1.1,1.2-2.2,2.2-3.5,2.8l-0.6-0.6
			c1.4-0.7,2.6-1.7,3.6-2.9c-0.8-1.5-1.2-2.9-1.4-4.2l0.8-0.2c0.3,1.5,0.7,2.7,1.1,3.6c0.9-1.6,1.4-3.8,1.7-6.7H644
			c-0.5,1.5-1.1,2.8-1.7,3.9l-0.6-0.4c1-1.7,1.8-4,2.4-6.8l0.7,0.2c-0.1,0.7-0.3,1.5-0.5,2.3h4.2v0.8h-1c-0.3,3.2-0.9,5.7-2,7.5
			C646.3,347.7,647.4,348.7,648.7,349.4z"/>
		<path class="st14" d="M655.4,342.7c-0.7,0.3-1.2,0.6-1.6,0.8v5.2c0,0.4-0.1,0.6-0.2,0.8c-0.2,0.2-0.4,0.3-0.6,0.3
			c-0.2,0-0.8,0-1.6,0l-0.2-0.9c0.4,0,0.9,0,1.5,0c0.2,0,0.3-0.1,0.3-0.3v-4.8c-1,0.3-1.6,0.6-2,0.7l-0.3-0.8
			c0.8-0.2,1.5-0.5,2.2-0.8v-3.7h-2.1v-0.8h2.1v-2.8h0.8v2.8h1.5v0.8h-1.5v3.4c0.4-0.2,0.9-0.4,1.5-0.7L655.4,342.7z M664.9,342.5
			h-3.7v2h2.9v5.2h-0.8v-0.9h-5v1h-0.9v-5.2h2.9v-2h-3.5c-0.1,2.7-0.7,5-1.7,7l-0.7-0.5c1-2.1,1.6-4.5,1.6-7.1V336h8.1v3.8h-7.2v2
			h3.4v-1.4h0.8v1.4h3.7V342.5z M663.3,338.9v-2.1h-6.3v2.1H663.3z M663.3,348v-2.7h-5v2.7H663.3z"/>
		<path class="st14" d="M677.6,345.8H667V345h10.5V345.8z M680.9,341.6c-0.1,1.3-0.1,2.6-0.3,4s-0.3,2.2-0.4,2.6
			c-0.1,0.4-0.3,0.7-0.5,1c-0.2,0.3-0.5,0.4-0.8,0.5c-0.3,0.1-0.8,0.1-1.5,0.1c-0.7,0-1.4,0-2.1,0l-0.4-0.8c0.9,0,1.6,0,2,0
			c0.9,0,1.5-0.1,1.8-0.2c0.2-0.1,0.4-0.3,0.6-0.5s0.3-0.8,0.4-1.8c0.1-1,0.2-2.3,0.3-4.1h-10.7v-6.8h0.9v2.4h9.3v0.8h-9.3v2.8
			H680.9z"/>
		<path class="st14" d="M697.5,349.1l-0.4,0.8c-2.6-0.7-4.9-1.7-6.7-3c-1.7,1.3-3.9,2.3-6.6,3l-0.5-0.9c2.7-0.6,4.8-1.5,6.5-2.7
			c-1-1-2-2.3-2.8-3.8l0.8-0.4c0.8,1.5,1.7,2.8,2.6,3.7c1.1-1.1,2.1-2.4,2.8-3.6l0.8,0.4c-1.1,1.7-2,2.9-2.9,3.8
			C692.6,347.5,694.7,348.4,697.5,349.1z M688.7,339.5c-1,1.4-2.6,2.9-4.6,4.4l-0.6-0.7c2-1.4,3.5-2.8,4.6-4.2L688.7,339.5z
			 M697.4,338.3h-13.8v-0.8h6.7c-0.1-0.5-0.4-1-0.8-1.6l0.9-0.3c0.4,0.7,0.7,1.3,0.9,1.9h6.2V338.3z M697.3,343.3l-0.7,0.6
			c-1.1-1.4-2.6-2.9-4.5-4.3l0.6-0.6C694.7,340.5,696.2,341.9,697.3,343.3z"/>
		<path class="st14" d="M713.8,349.5h-14.1v-0.8h9.5l0.6-3.1h-8l2.6-8.8h-4.5v-0.9h13.8v0.9h-8.3l-0.9,2.9h7.3l-1.6,8.9h3.7V349.5z
			 M710.6,340.5h-6.5l-1.2,4.1h7L710.6,340.5z"/>
	</g>
	<g class="st13">
		<path class="st15" d="M420.7,481.9h-1.6c-0.5,1.3-0.9,2.2-1.4,2.7c1.3,0.6,2.1,0.9,2.2,1l-0.4,0.8c-0.8-0.4-1.6-0.8-2.4-1.1
			c-1.2,1.1-2.6,1.8-4.4,2.2l-0.5-0.7c1.8-0.4,3.1-1,4.1-1.8c-0.8-0.3-1.8-0.7-3-1.1c0.4-0.6,0.9-1.2,1.3-2h-2.3V481h2.8l0.9-1.6
			l0.8,0.4c-0.2,0.4-0.4,0.8-0.7,1.2h2.3c0.1-0.3,0.1-0.5,0.2-0.8l0.8,0.2l-0.1,0.6h1.4V481.9z M415.3,477c-0.7,1-1.5,1.8-2.3,2.4
			l-0.7-0.6c0.7-0.5,1.5-1.3,2.3-2.3L415.3,477z M420.7,475.9h-3.5v3.3h-0.9v-3.3h-3.8v-0.9h3.8v-3.2h0.9v3.2h3.5V475.9z
			 M415.4,473.9l-0.7,0.5c-0.6-0.8-1.2-1.4-1.6-1.8l0.7-0.5C414.4,472.7,415,473.3,415.4,473.9z M418.2,481.9h-2.5
			c-0.3,0.5-0.6,1-1,1.5c0.7,0.2,1.4,0.5,2.3,0.8C417.5,483.6,417.9,482.8,418.2,481.9z M420.3,472.7c-0.6,0.7-1.1,1.3-1.7,1.8
			l-0.7-0.6c0.5-0.5,1.1-1,1.6-1.7L420.3,472.7z M420.3,478.3l-0.7,0.5c-0.4-0.6-0.9-1.2-1.7-1.9l0.7-0.5
			C419.3,477.1,419.8,477.7,420.3,478.3z M427.9,486.8l-0.6,0.7c-1.4-0.9-2.6-1.9-3.5-3.1c-1.2,1.3-2.4,2.4-3.8,3.1l-0.6-0.7
			c1.5-0.8,2.8-1.8,3.9-3.1c-0.8-1.6-1.3-3.1-1.5-4.5l0.8-0.3c0.3,1.7,0.7,3,1.2,3.9c1-1.7,1.6-4.2,1.8-7.3h-2.8
			c-0.5,1.6-1.2,3-1.9,4.3l-0.7-0.5c1.1-1.9,2-4.3,2.6-7.4l0.8,0.2c-0.1,0.8-0.3,1.6-0.6,2.5h4.6v0.9h-1.1c-0.3,3.5-1,6.2-2.2,8.1
			C425.3,485,426.5,486,427.9,486.8z"/>
		<path class="st15" d="M435.2,479.5c-0.7,0.4-1.3,0.7-1.8,0.8v5.6c0,0.4-0.1,0.7-0.3,0.9c-0.2,0.2-0.4,0.3-0.6,0.3
			c-0.3,0-0.8,0-1.7,0l-0.3-0.9c0.4,0,0.9,0.1,1.7,0.1c0.2,0,0.3-0.1,0.3-0.4v-5.2c-1,0.4-1.8,0.6-2.1,0.7l-0.3-0.8
			c0.8-0.3,1.7-0.5,2.4-0.9v-4.1h-2.3v-0.9h2.3v-3.1h0.9v3.1h1.6v0.9h-1.6v3.7c0.4-0.2,0.9-0.4,1.7-0.8L435.2,479.5z M445.5,479.3
			h-4v2.2h3.2v5.7h-0.9v-1h-5.4v1h-0.9v-5.7h3.2v-2.2h-3.8c-0.1,2.9-0.7,5.5-1.8,7.6l-0.8-0.5c1.1-2.3,1.7-4.9,1.7-7.8v-6.4h8.8v4.1
			h-7.8v2.2h3.7V477h0.9v1.5h4V479.3z M443.7,475.4v-2.3h-6.9v2.3H443.7z M443.8,485.3v-2.9h-5.4v2.9H443.8z"/>
		<path class="st15" d="M453.4,487.3h-0.9v-4.9c-1.2,0.7-2.6,1.3-4,1.8l-0.4-1.1c0.2-0.1,0.4-0.4,0.4-0.6v-9.1h0.9v9.5
			c1.2-0.5,2.3-1,3.2-1.5v-9.7h0.9V487.3z M463.2,486.5l-0.6,0.8c-1.8-0.9-3.2-1.9-4.1-3.1c-1.2,1.2-2.5,2.2-4,3l-0.7-0.7
			c1.7-0.9,3.1-1.9,4.1-3c-0.8-1.2-1.4-2.7-1.9-4.6l0.9-0.3c0.5,1.8,1,3.1,1.6,4c1.1-1.7,1.8-4.2,2-7.5H457
			c-0.5,1.6-1.3,3.1-2.2,4.5l-0.7-0.7c1.4-2.1,2.3-4.5,2.8-7.4l0.9,0.2c-0.1,0.7-0.3,1.5-0.5,2.5h5.8v0.9h-1.5
			c-0.4,3.9-1.2,6.7-2.4,8.3C460.1,484.7,461.5,485.7,463.2,486.5z"/>
		<path class="st15" d="M471.6,484.5c-1.8,1-3.6,1.8-5.5,2.3l-0.6-0.8c2.1-0.5,3.9-1.3,5.4-2.1L471.6,484.5z M480.9,483.1h-7.2v4.1
			h-0.9v-4.1h-7.2v-0.9h7.2v-0.8h0.9v0.8h7.2V483.1z M480.3,480.8h-12.6v-4.9c-0.5,0.6-1,1.1-1.6,1.6l-0.6-0.7
			c1.5-1.4,2.7-3.1,3.6-5.2l0.9,0.3c-0.1,0.4-0.4,0.8-0.7,1.5h4.3c-0.1-0.5-0.3-0.9-0.6-1.4l0.8-0.4c0.2,0.5,0.5,1.1,0.7,1.8h5.5
			v0.8h-5.7v1.3h5.2v0.8h-5.2v1.3h5.2v0.8h-5.2v1.4h6V480.8z M473.4,475.5v-1.3h-4.6c-0.1,0.1-0.1,0.2-0.2,0.3v1H473.4z
			 M473.4,477.7v-1.3h-4.8v1.3H473.4z M473.4,479.9v-1.4h-4.8v1.4H473.4z M480.9,486.2l-0.6,0.7c-1.4-0.9-3.2-1.7-5.3-2.4l0.6-0.7
			C477.7,484.5,479.4,485.3,480.9,486.2z"/>
	</g>
	<g class="st13">
		<path class="st15" d="M702.1,486.4h-7V473h6.7v1.3h-5.3v4.6h4.9v1.3h-4.9v4.8h5.6V486.4z"/>
		<path class="st15" d="M712.6,486.4h-1.4v-1.6h0c-0.7,1.2-1.8,1.9-3.3,1.9c-1.2,0-2.2-0.4-2.9-1.3c-0.7-0.9-1.1-2-1.1-3.5
			c0-1.6,0.4-2.8,1.2-3.8c0.8-1,1.9-1.4,3.2-1.4c1.3,0,2.3,0.5,2.9,1.6h0v-5.9h1.4V486.4z M711.2,480.6c0-0.8-0.3-1.4-0.8-2
			c-0.5-0.5-1.2-0.8-2-0.8c-1,0-1.7,0.4-2.3,1.1s-0.8,1.7-0.8,2.9c0,1.1,0.3,2,0.8,2.6c0.5,0.7,1.2,1,2.1,1c0.8,0,1.5-0.3,2.1-0.9
			c0.6-0.6,0.8-1.4,0.8-2.4V480.6z"/>
		<path class="st15" d="M723.8,485.6c0,3.5-1.7,5.3-5,5.3c-1.2,0-2.2-0.2-3.1-0.7v-1.5c1.1,0.6,2.1,0.9,3.1,0.9
			c2.4,0,3.6-1.3,3.6-3.8v-1.1h0c-0.8,1.2-1.9,1.8-3.3,1.8c-1.2,0-2.2-0.4-2.9-1.3c-0.7-0.9-1.1-2-1.1-3.4c0-1.6,0.4-2.9,1.2-3.9
			c0.8-1,1.9-1.4,3.2-1.4c1.3,0,2.3,0.5,2.9,1.6h0v-1.3h1.4V485.6z M722.4,480.6c0-0.8-0.3-1.4-0.8-2s-1.2-0.8-1.9-0.8
			c-1,0-1.7,0.4-2.3,1.1c-0.6,0.7-0.8,1.7-0.8,2.9c0,1.1,0.3,2,0.8,2.6c0.5,0.6,1.2,1,2.1,1c0.9,0,1.6-0.3,2.1-0.9
			c0.6-0.6,0.8-1.4,0.8-2.4V480.6z"/>
		<path class="st15" d="M734.6,481.9h-6.8c0,1.1,0.3,1.9,0.9,2.5s1.3,0.9,2.3,0.9c1.1,0,2.1-0.4,3-1.1v1.4c-0.8,0.6-1.9,0.9-3.3,0.9
			c-1.3,0-2.4-0.4-3.2-1.3c-0.8-0.9-1.2-2.1-1.2-3.7c0-1.5,0.4-2.7,1.2-3.6c0.8-1,1.9-1.4,3.1-1.4c1.2,0,2.2,0.4,2.9,1.2
			c0.7,0.8,1,1.9,1,3.4V481.9z M733.1,480.7c0-0.9-0.2-1.6-0.6-2.1c-0.4-0.5-1-0.7-1.8-0.7c-0.7,0-1.3,0.3-1.8,0.8
			c-0.5,0.5-0.9,1.2-1,2.1H733.1z"/>
		<path class="st15" d="M755.6,486c0,0.5-0.2,0.8-0.5,1c-0.3,0.2-1.1,0.3-2.3,0.3c-0.3,0-0.5,0-0.8,0l-0.3-1c0.4,0,0.9,0.1,1.3,0.1
			c0.8,0,1.3,0,1.5-0.1c0.1-0.1,0.2-0.2,0.2-0.3v-4.3h-5v5.2h-1v-5.2h-5.1c-0.3,2.4-0.9,4.3-1.8,5.6l-0.8-0.6
			c1.2-1.8,1.8-3.9,1.8-6.4v-8.1h12.8V486z M748.7,476.3v-3.2h-5v3.2H748.7z M748.7,480.7v-3.4h-5v3.4H748.7z M754.7,476.3v-3.2h-5
			v3.2H754.7z M754.7,480.7v-3.4h-5v3.4H754.7z"/>
		<path class="st15" d="M772.9,479.1h-11.6c0,3.7-0.7,6.4-2.1,8.2l-0.7-0.5c1.3-1.8,1.9-4.4,1.9-7.8v-5.1h5.9
			c-0.3-0.6-0.7-1.3-1-1.9l0.9-0.3c0.4,0.5,0.7,1.3,1.2,2.1h5.6V479.1z M772,478.1v-3.4h-10.7v3.4H772z"/>
		<path class="st15" d="M782.2,479.9l-0.7,0.7c-0.5-0.9-1.1-1.7-1.6-2.3v9H779v-8.9c-0.7,1.8-1.4,3.2-2.1,4.2l-0.6-0.7
			c1.1-1.6,2-3.5,2.7-5.5h-2.4v-0.9h2.5v-3.6h0.9v3.6h2.2v0.9H780v0.7C780.9,478,781.6,479,782.2,479.9z M785,476.7l-0.8,0.4
			c-0.6-1.5-1.5-2.9-2.5-4.3l0.8-0.5C783.5,473.8,784.4,475.2,785,476.7z M791.1,487.2h-0.9v-0.8h-8.3v-0.9h8.3v-3h-7.5v-0.9h7.5
			v-2.8h-8.2V478h4.2v-6.3h0.9v6.3h3.9V487.2z M791.6,472.7c-0.5,1.5-1.3,3-2.2,4.5l-0.8-0.5c0.9-1.3,1.6-2.8,2.2-4.4L791.6,472.7z"
			/>
		<path class="st15" d="M809.6,482.6h-7.2v4.6h-0.9v-4.6h-7.2v-0.9h7.2v-1.3h0.9v1.3h7.2V482.6z M799.9,483.9
			c-1.5,1.2-3.1,2.2-4.9,3l-0.6-0.7c1.9-0.8,3.4-1.7,4.8-2.8L799.9,483.9z M809.1,476.7h-4.1c-0.5,0.8-1.1,1.4-1.7,2
			c1.8,0.5,3.6,1,5.5,1.7l-0.5,0.8c-1.5-0.6-3.4-1.2-5.8-1.8c-1.6,1-4,1.5-7.4,1.6l-0.5-0.9c3.1,0,5.3-0.3,6.6-1
			c-1.5-0.4-2.9-0.7-4.2-0.9c0.5-0.4,0.9-0.9,1.4-1.5h-3.6v-0.8h4.3c0.5-0.6,0.9-1.1,1.3-1.7l0.8,0.4c-0.3,0.5-0.7,1-1,1.4h4.2
			c0.2-0.3,0.4-0.6,0.5-0.9l0.9,0.2c-0.1,0.2-0.2,0.4-0.3,0.7h3.6V476.7z M808.9,475H808v-1.1h-12.1v1.1H795v-2h6.6
			c-0.1-0.3-0.3-0.7-0.6-1.1l0.9-0.3c0.2,0.3,0.4,0.7,0.8,1.3h6.2V475z M803.8,476.7h-4.3c-0.2,0.3-0.5,0.6-0.8,0.9
			c0.7,0.1,1.9,0.4,3.5,0.8C802.7,478,803.3,477.5,803.8,476.7z M809.5,486.2l-0.7,0.7c-1.4-1-3-1.9-5-2.7l0.7-0.7
			C806.6,484.4,808.2,485.3,809.5,486.2z"/>
	</g>
	<g class="st13">
		<path class="st14" d="M670.5,580.4c0,0.5-0.2,0.8-0.5,1s-1.1,0.3-2.3,0.3c-0.3,0-0.5,0-0.8,0l-0.3-1c0.4,0,0.9,0.1,1.3,0.1
			c0.8,0,1.3,0,1.5-0.1c0.1-0.1,0.2-0.2,0.2-0.3V576h-5v5.2h-1V576h-5.1c-0.3,2.4-0.9,4.3-1.8,5.6l-0.8-0.6c1.2-1.8,1.8-3.9,1.8-6.4
			v-8.1h12.8V580.4z M663.6,570.7v-3.2h-5v3.2H663.6z M663.6,575.1v-3.4h-5v3.4H663.6z M669.6,570.7v-3.2h-5v3.2H669.6z
			 M669.6,575.1v-3.4h-5v3.4H669.6z"/>
		<path class="st14" d="M687.8,573.5h-11.6c0,3.7-0.7,6.4-2.1,8.2l-0.7-0.5c1.3-1.8,1.9-4.4,1.9-7.8v-5.1h5.9
			c-0.3-0.6-0.7-1.3-1-1.9l0.9-0.3c0.4,0.5,0.7,1.3,1.2,2.1h5.6V573.5z M686.9,572.5v-3.4h-10.7v3.4H686.9z"/>
		<path class="st14" d="M697.1,574.3l-0.7,0.7c-0.5-0.9-1.1-1.7-1.6-2.3v9h-0.9v-8.9c-0.7,1.8-1.4,3.2-2.1,4.2l-0.6-0.7
			c1.1-1.6,2-3.5,2.7-5.5h-2.4v-0.9h2.5v-3.6h0.9v3.6h2.2v0.9h-2.2v0.7C695.8,572.4,696.6,573.4,697.1,574.3z M699.9,571.1l-0.8,0.4
			c-0.6-1.5-1.5-2.9-2.5-4.3l0.8-0.5C698.4,568.2,699.3,569.6,699.9,571.1z M706.1,581.6h-0.9v-0.8h-8.3v-0.9h8.3v-3h-7.5v-0.9h7.5
			v-2.8H697v-0.8h4.2v-6.3h0.9v6.3h3.9V581.6z M706.5,567.1c-0.5,1.5-1.3,3-2.2,4.5l-0.8-0.5c0.9-1.3,1.6-2.8,2.2-4.4L706.5,567.1z"
			/>
		<path class="st14" d="M662.5,598.3h-7.2v4.6h-0.9v-4.6h-7.2v-0.9h7.2v-1.3h0.9v1.3h7.2V598.3z M652.8,599.6
			c-1.5,1.2-3.1,2.2-4.9,3l-0.6-0.7c1.9-0.8,3.4-1.7,4.7-2.8L652.8,599.6z M662,592.4h-4.1c-0.5,0.8-1.1,1.4-1.7,2
			c1.8,0.5,3.6,1,5.5,1.7l-0.5,0.8c-1.5-0.6-3.4-1.2-5.8-1.8c-1.6,1-4,1.5-7.4,1.6l-0.5-0.9c3.1,0,5.3-0.3,6.6-1
			c-1.5-0.4-2.9-0.7-4.2-0.9c0.5-0.5,0.9-0.9,1.4-1.5h-3.6v-0.8h4.3c0.5-0.6,0.9-1.1,1.3-1.7l0.8,0.4c-0.3,0.5-0.7,1-1,1.4h4.2
			c0.2-0.3,0.4-0.6,0.5-0.9l0.9,0.2c-0.1,0.2-0.2,0.4-0.3,0.7h3.6V592.4z M661.8,590.7h-0.9v-1.1h-12.1v1.1h-0.9v-2h6.6
			c-0.1-0.3-0.3-0.7-0.6-1.1l0.9-0.3c0.2,0.3,0.4,0.7,0.8,1.3h6.2V590.7z M656.7,592.4h-4.3c-0.2,0.3-0.5,0.6-0.8,0.9
			c0.7,0.1,1.9,0.4,3.5,0.8C655.6,593.7,656.2,593.1,656.7,592.4z M662.4,601.8l-0.7,0.7c-1.4-1-3-1.9-5-2.7l0.7-0.7
			C659.5,600,661.1,600.9,662.4,601.8z"/>
		<path class="st14" d="M673.2,596.8l-0.6,0.7c-1-1-1.9-1.8-2.8-2.5v8h-0.9v-8.3c-1.1,2-2.3,3.7-3.6,5l-0.7-0.6
			c1.5-1.4,2.9-3.5,4.2-6.2h-4v-0.9h4.1v-2.6c-1.2,0.2-2.3,0.3-3.2,0.3l-0.3-0.9c2.7-0.2,5.1-0.6,7.1-1.3l0.5,0.9
			c-0.7,0.3-1.8,0.6-3.1,0.8v2.8h3.2v0.9h-3.2v1C671.4,595,672.5,596,673.2,596.8z M679.7,603h-1v-1.7h-4v1.7h-0.9v-13.5h5.9V603z
			 M678.7,600.4v-10h-4v10H678.7z"/>
		<path class="st14" d="M698,602l-0.5,0.9c-2.7-0.5-5.2-1.3-7.3-2.4c-1.9,1.1-4.3,1.8-7.3,2.4l-0.5-0.9c2.8-0.5,5.1-1.1,6.9-2
			c-1.4-1-2.5-2.2-3.4-3.5h-0.6v-0.9h9.7v0.9c-1.5,1.8-2.8,2.9-3.8,3.5C692.9,600.8,695.1,601.5,698,602z M697.5,596.6h-0.9v-2.9
			h-12.7v2.9h-0.9v-3.8h14.6V596.6z M696.7,588.3c-3.7,0.7-7.9,1.1-12.7,1.1l-0.4-0.9c0.8,0,1.5,0,2.2,0c3.7,0,7.2-0.3,10.5-1
			L696.7,588.3z M686.8,592.1l-0.9,0.3c-0.2-0.5-0.6-1.3-1.3-2.3l0.8-0.4C686,590.6,686.5,591.4,686.8,592.1z M693.8,596.4h-6.7
			c1,1.4,2.1,2.4,3.2,3C691.4,598.9,692.5,597.9,693.8,596.4z M691.1,592l-0.9,0.3c-0.2-0.8-0.6-1.6-1.1-2.4l0.9-0.4
			C690.6,590.6,691,591.4,691.1,592z M696.3,589.5c-0.5,1.1-1,2-1.7,2.9l-0.9-0.4c0.6-0.8,1.2-1.7,1.7-2.8L696.3,589.5z"/>
		<path class="st14" d="M707.9,600.2l-0.7,0.7c-0.8-1-1.7-1.9-2.7-2.7c-0.8,1.9-1.9,3.5-3.6,4.9l-0.8-0.6c1.3-1,2.3-2.2,3-3.4
			c0.7-1.3,1.1-3,1.3-5.2l0.9,0.2c-0.1,0.9-0.3,2-0.6,3.3C706,598.3,707.1,599.3,707.9,600.2z M715.2,594l-0.6,0.8
			c-3.2-1.7-5.4-3.5-6.6-5.4c-1.4,2.1-3.7,3.9-6.7,5.5l-0.6-0.8c3.7-1.8,6.2-4,7.5-6.6l0.9,0.3c-0.1,0.2-0.3,0.5-0.5,0.9
			C709.9,590.8,712.1,592.6,715.2,594z M715.6,602.4l-0.6,0.7c-1.8-1.1-3.3-2.9-4.3-5.3c-0.6,2-1.8,3.8-3.8,5.3l-0.8-0.6
			c1.5-1.1,2.5-2.3,3.2-3.6c0.6-1.3,0.9-3,0.9-5l0.9,0.1c0,0.5,0,1-0.1,1.5l-0.1,0.8c0,0.3,0.4,1.2,1.3,2.7
			C713.1,600.4,714.3,601.6,715.6,602.4z"/>
	</g>
	<g class="st13">
		<path class="st14" d="M946.8,559.4h-6.4c-1.5,2.4-4.2,4-8.3,4.8l-0.6-0.8c3.6-0.7,6.2-2,7.7-4h-7.6v-0.9h8.1
			c0.5-1.6,0.8-3.7,0.7-6.4l0.9,0c0,2.3-0.2,4.4-0.6,6.4h6.1V559.4z M946.4,553.8h-0.9v-2.3H933v2.3h-0.9v-3.1h7
			c-0.2-0.6-0.5-1.2-0.9-1.8l0.9-0.4c0.4,0.6,0.7,1.4,1.1,2.2h6.3V553.8z M938.1,556.9l-0.5,0.8c-1.2-0.6-2.6-1.1-4.4-1.6l0.5-0.8
			C935.5,555.7,936.9,556.2,938.1,556.9z M939.2,554.4l-0.5,0.8c-1.3-0.7-2.7-1.4-4.3-1.9l0.4-0.8C936.5,553,938,553.7,939.2,554.4z
			 M947,563.6l-0.6,0.7c-1.4-1.1-3.2-2.2-5.5-3.3l0.6-0.7C943.8,561.4,945.6,562.6,947,563.6z"/>
		<path class="st14" d="M954.7,562.9h-0.9v-1.1h-3v1.5h-0.9v-13.4h4.8V562.9z M953.8,555.4v-4.5h-3v4.5H953.8z M953.8,560.9v-4.7h-3
			v4.7H953.8z M964.6,553.2h-1.9v9.7c0,0.3-0.1,0.6-0.3,0.8c-0.2,0.2-0.4,0.4-0.7,0.4c-0.3,0.1-0.7,0.1-1.4,0.1c-0.4,0-0.8,0-1.4,0
			l-0.4-0.9c1.6,0,2.6,0,2.9,0c0.3,0,0.4-0.2,0.4-0.4v-9.7h-6.3v-0.9h6.3v-3.5h0.9v3.5h1.9V553.2z M959.9,559.5l-0.8,0.5
			c-0.6-1.5-1.5-3-2.5-4.6l0.8-0.5C958.4,556.5,959.2,558,959.9,559.5z"/>
		<path class="st14" d="M971.4,549c-0.2,0.6-0.5,1.3-0.9,2.1l-0.5,1.2v11.9h-0.9V554c-0.5,0.8-1.1,1.6-1.8,2.4l-0.5-0.9
			c1.5-1.7,2.8-4,3.8-6.9L971.4,549z M982.4,559.8l-0.6,0.7c-2.1-1.8-3.7-4.2-4.8-7v6.7h3.3v0.9H977v3h-0.9v-3h-3.4v-0.9h3.4v-6.6
			c-1.2,2.9-2.7,5.2-4.6,7l-0.7-0.6c2-1.9,3.7-4.4,4.9-7.4h-4.2v-0.9h4.7v-2.9h0.9v2.9h5v0.9h-4.5
			C978.7,555.6,980.3,558,982.4,559.8z"/>
		<path class="st14" d="M988.9,559.8c-1.4,0.5-2.8,1-4.2,1.3l-0.3-0.9c1.5-0.4,2.9-0.8,4.2-1.3L988.9,559.8z M990.4,556.1
			c0,1.6,0,3.1-0.1,4.5c-0.1,1.5-0.2,2.3-0.3,2.6c-0.1,0.3-0.3,0.5-0.5,0.6c-0.2,0.2-0.8,0.3-1.7,0.3h-1.1l-0.3-0.9c0.5,0,1,0,1.4,0
			c0.6,0,1,0,1.1-0.1s0.2-0.2,0.3-0.4c0-0.2,0.1-0.9,0.2-2.2c0.1-1.3,0.1-2.5,0.1-3.5h-4.3l0.4-6.1l0.9,0.1l-0.3,5.1h2.4l0.4-6.1
			h-4.2v-0.8h5.2l-0.5,7H990.4z M1000.3,554.2l-0.6,0.7c-2.2-1.6-3.6-3.2-4.3-4.6c-1,1.4-2.4,2.9-4.1,4.5l-0.7-0.7
			c2.2-1.8,3.8-3.7,4.7-5.6l0.8,0.3c0,0.1-0.1,0.3-0.2,0.5C996.6,551,998.1,552.6,1000.3,554.2z M1000.1,563.8h-9.3v-0.9h5.5
			c0.9-2.1,1.7-4.4,2.2-6.9l0.9,0.3c-0.6,2.6-1.4,4.8-2.1,6.6h2.9V563.8z M993.4,561.7l-0.9,0.2c-0.2-1.7-0.7-3.5-1.4-5.6l0.9-0.2
			C992.7,558.3,993.2,560.1,993.4,561.7z M998.1,555.1h-5.3v-0.9h5.3V555.1z M996,561.5l-0.9,0.2c-0.1-1.7-0.3-3.6-0.8-5.7l0.9-0.2
			C995.7,558.1,996,560,996,561.5z"/>
	</g>
	<g class="st13">
		<path class="st14" d="M594.3,561.7h-1.6c-0.5,1.3-0.9,2.2-1.4,2.7c1.3,0.6,2.1,0.9,2.2,1l-0.4,0.8c-0.8-0.4-1.6-0.8-2.4-1.1
			c-1.2,1.1-2.6,1.8-4.4,2.2l-0.5-0.7c1.8-0.4,3.1-1,4.1-1.8c-0.8-0.3-1.8-0.7-3-1.1c0.4-0.6,0.9-1.2,1.3-2h-2.3v-0.8h2.8l0.9-1.6
			l0.8,0.4c-0.2,0.4-0.4,0.8-0.7,1.2h2.3c0.1-0.3,0.1-0.5,0.2-0.8l0.8,0.2l-0.1,0.6h1.4V561.7z M588.9,556.9c-0.7,1-1.5,1.8-2.3,2.4
			l-0.7-0.6c0.7-0.5,1.5-1.3,2.3-2.3L588.9,556.9z M594.3,555.8h-3.5v3.3h-0.9v-3.3h-3.8v-0.9h3.8v-3.2h0.9v3.2h3.5V555.8z
			 M589,553.8l-0.7,0.5c-0.6-0.8-1.2-1.4-1.6-1.8l0.7-0.5C588,552.6,588.6,553.2,589,553.8z M591.8,561.7h-2.5c-0.3,0.5-0.6,1-1,1.5
			c0.7,0.2,1.4,0.5,2.3,0.8C591,563.5,591.5,562.7,591.8,561.7z M593.9,552.6c-0.6,0.7-1.1,1.3-1.7,1.8l-0.7-0.6
			c0.5-0.5,1.1-1,1.6-1.7L593.9,552.6z M593.9,558.2l-0.7,0.5c-0.4-0.6-0.9-1.2-1.7-1.9l0.7-0.5
			C592.9,556.9,593.4,557.5,593.9,558.2z M601.5,566.7l-0.6,0.7c-1.4-0.9-2.6-1.9-3.5-3.1c-1.2,1.3-2.4,2.4-3.8,3.1l-0.6-0.7
			c1.5-0.8,2.8-1.8,3.9-3.1c-0.8-1.6-1.3-3.1-1.5-4.5l0.8-0.3c0.3,1.7,0.7,3,1.2,3.9c1-1.7,1.6-4.2,1.8-7.3h-2.8
			c-0.5,1.6-1.2,3-1.9,4.3l-0.7-0.5c1.1-1.9,2-4.3,2.6-7.4l0.8,0.2c-0.1,0.8-0.3,1.6-0.6,2.5h4.6v0.9h-1.1c-0.3,3.5-1,6.2-2.2,8.1
			C598.9,564.8,600.1,565.9,601.5,566.7z"/>
		<path class="st14" d="M608.8,559.4c-0.7,0.4-1.3,0.7-1.8,0.8v5.6c0,0.4-0.1,0.7-0.3,0.9c-0.2,0.2-0.4,0.3-0.6,0.3
			c-0.3,0-0.8,0-1.7,0l-0.3-0.9c0.4,0,0.9,0.1,1.7,0.1c0.2,0,0.3-0.1,0.3-0.4v-5.2c-1,0.4-1.8,0.6-2.1,0.7l-0.3-0.8
			c0.8-0.3,1.7-0.5,2.4-0.9v-4.1h-2.3v-0.9h2.3v-3.1h0.9v3.1h1.6v0.9H607v3.7c0.4-0.2,0.9-0.4,1.7-0.8L608.8,559.4z M619.1,559.2h-4
			v2.2h3.2v5.7h-0.9v-1h-5.4v1H611v-5.7h3.2v-2.2h-3.8c-0.1,2.9-0.7,5.5-1.8,7.6l-0.8-0.5c1.1-2.3,1.7-4.9,1.7-7.8v-6.4h8.8v4.1
			h-7.8v2.2h3.7v-1.5h0.9v1.5h4V559.2z M617.3,555.3v-2.3h-6.9v2.3H617.3z M617.4,565.1v-2.9h-5.4v2.9H617.4z"/>
	</g>
	<g class="st13">
		<path class="st14" d="M230.3,739.8h-1.4c-0.4,1.1-0.8,2-1.2,2.4c1.2,0.5,1.9,0.8,2,0.9l-0.4,0.7c-0.7-0.4-1.5-0.7-2.1-1
			c-1,1-2.4,1.7-4,2l-0.5-0.7c1.6-0.4,2.8-0.9,3.7-1.6c-0.7-0.3-1.7-0.6-2.7-1c0.4-0.5,0.8-1.1,1.2-1.8h-2.1v-0.8h2.5l0.8-1.4
			l0.7,0.4c-0.2,0.4-0.4,0.8-0.6,1.1h2.1c0.1-0.2,0.1-0.5,0.2-0.7l0.8,0.2l-0.1,0.6h1.3V739.8z M225.3,735.4
			c-0.7,0.9-1.4,1.6-2.1,2.1l-0.6-0.5c0.7-0.5,1.4-1.2,2.1-2.1L225.3,735.4z M230.2,734.5H227v3h-0.8v-3h-3.5v-0.8h3.5v-2.9h0.8v2.9
			h3.2V734.5z M225.4,732.6l-0.6,0.5c-0.6-0.7-1.1-1.3-1.5-1.6l0.6-0.5C224.6,731.5,225.1,732.1,225.4,732.6z M228,739.8h-2.3
			c-0.3,0.4-0.6,0.9-0.9,1.4c0.6,0.2,1.3,0.4,2.1,0.7C227.3,741.4,227.7,740.7,228,739.8z M229.8,731.5c-0.5,0.6-1,1.2-1.5,1.6
			l-0.6-0.5c0.5-0.4,1-0.9,1.5-1.5L229.8,731.5z M229.9,736.6l-0.6,0.5c-0.4-0.5-0.9-1.1-1.5-1.7l0.6-0.4
			C229,735.5,229.5,736,229.9,736.6z M236.7,744.3l-0.6,0.6c-1.3-0.8-2.4-1.7-3.2-2.8c-1.1,1.2-2.2,2.1-3.4,2.8l-0.6-0.6
			c1.4-0.7,2.6-1.7,3.5-2.8c-0.7-1.4-1.2-2.8-1.4-4.1l0.8-0.2c0.3,1.5,0.6,2.7,1.1,3.5c0.9-1.6,1.4-3.8,1.6-6.6h-2.5
			c-0.5,1.5-1,2.7-1.7,3.9l-0.6-0.4c1-1.7,1.8-3.9,2.4-6.7l0.7,0.2c-0.1,0.7-0.3,1.5-0.5,2.2h4.1v0.8h-1c-0.3,3.2-0.9,5.6-2,7.3
			C234.4,742.6,235.5,743.6,236.7,744.3z"/>
		<path class="st14" d="M243.4,737.7c-0.7,0.3-1.2,0.6-1.6,0.8v5.1c0,0.4-0.1,0.6-0.2,0.8c-0.2,0.2-0.4,0.3-0.6,0.3
			c-0.2,0-0.7,0-1.5,0l-0.2-0.8c0.3,0,0.9,0,1.5,0c0.2,0,0.3-0.1,0.3-0.3v-4.7c-0.9,0.3-1.6,0.6-1.9,0.7l-0.3-0.8
			c0.8-0.2,1.5-0.5,2.2-0.8v-3.7h-2.1v-0.8h2.1v-2.8h0.8v2.8h1.5v0.8h-1.5v3.3c0.4-0.2,0.9-0.4,1.5-0.7L243.4,737.7z M252.6,737.5
			H249v2h2.9v5.1h-0.8v-0.9h-4.9v0.9h-0.8v-5.2h2.9v-2h-3.4c-0.1,2.7-0.7,4.9-1.6,6.8l-0.7-0.5c1-2.1,1.5-4.4,1.5-7v-5.8h7.9v3.7
			h-7.1v2h3.4v-1.4h0.8v1.4h3.6V737.5z M251.1,734v-2.1h-6.2v2.1H251.1z M251.1,742.9v-2.6h-4.9v2.6H251.1z"/>
	</g>
	<g class="st13">
		<path class="st14" d="M379.9,607.8h-7v-13.4h6.7v1.3h-5.3v4.6h4.9v1.3h-4.9v4.8h5.6V607.8z"/>
		<path class="st14" d="M389.2,598.3l-3.2,4.9l3.2,4.7h-1.7l-1.9-3.1c-0.1-0.2-0.3-0.5-0.4-0.7h0c0,0-0.1,0.2-0.4,0.7l-2,3.1H381
			l3.3-4.7l-3.1-4.9h1.7l2.3,4h0c0.1-0.1,0.1-0.2,0.2-0.3l2.2-3.7H389.2z"/>
		<path class="st14" d="M392.4,606.4v5.8H391v-14h1.4v1.7h0c0.8-1.3,1.9-1.9,3.3-1.9c1.2,0,2.2,0.4,2.9,1.3s1.1,2,1.1,3.5
			c0,1.6-0.4,2.9-1.2,3.8c-0.8,1-1.9,1.4-3.2,1.4C394.1,608.1,393.2,607.5,392.4,606.4L392.4,606.4z M392.4,604c0,0.8,0.3,1.5,0.8,2
			c0.5,0.6,1.2,0.8,2,0.8c0.9,0,1.7-0.4,2.2-1.1s0.8-1.7,0.8-3c0-1.1-0.3-1.9-0.8-2.5c-0.5-0.6-1.2-0.9-2-0.9
			c-0.9,0-1.6,0.3-2.2,0.9c-0.6,0.6-0.9,1.4-0.9,2.4V604z"/>
		<path class="st14" d="M409.8,603.4H403c0,1.1,0.3,1.9,0.9,2.5c0.6,0.6,1.3,0.9,2.3,0.9c1.1,0,2.1-0.4,3-1.1v1.4
			c-0.8,0.6-1.9,0.9-3.3,0.9c-1.3,0-2.4-0.4-3.2-1.3c-0.8-0.9-1.2-2.1-1.2-3.7c0-1.5,0.4-2.7,1.2-3.6c0.8-1,1.9-1.4,3.1-1.4
			c1.2,0,2.2,0.4,2.9,1.2s1,1.9,1,3.4V603.4z M408.3,602.1c0-0.9-0.2-1.6-0.6-2.1s-1-0.7-1.8-0.7c-0.7,0-1.3,0.3-1.8,0.8
			c-0.5,0.5-0.9,1.2-1,2.1H408.3z"/>
		<path class="st14" d="M417.1,599.7c-0.3-0.2-0.6-0.3-1.2-0.3c-0.7,0-1.2,0.3-1.7,1c-0.4,0.6-0.7,1.5-0.7,2.5v4.9h-1.4v-9.6h1.4v2
			h0c0.2-0.7,0.6-1.2,1-1.6c0.5-0.4,0.9-0.6,1.5-0.6c0.4,0,0.7,0,0.9,0.1V599.7z"/>
		<path class="st14" d="M418.6,594.8c0-0.3,0.1-0.5,0.3-0.7s0.4-0.3,0.7-0.3c0.3,0,0.5,0.1,0.7,0.3s0.3,0.4,0.3,0.7
			c0,0.3-0.1,0.5-0.3,0.7s-0.4,0.3-0.7,0.3c-0.3,0-0.5-0.1-0.7-0.3C418.7,595.3,418.6,595.1,418.6,594.8z M418.8,607.8v-9.6h1.4v9.6
			H418.8z"/>
		<path class="st14" d="M431,603.4h-6.8c0,1.1,0.3,1.9,0.9,2.5c0.6,0.6,1.3,0.9,2.3,0.9c1.1,0,2.1-0.4,3-1.1v1.4
			c-0.8,0.6-1.9,0.9-3.3,0.9c-1.3,0-2.4-0.4-3.2-1.3c-0.8-0.9-1.2-2.1-1.2-3.7c0-1.5,0.4-2.7,1.2-3.6c0.8-1,1.9-1.4,3.1-1.4
			c1.2,0,2.2,0.4,2.9,1.2s1,1.9,1,3.4V603.4z M429.5,602.1c0-0.9-0.2-1.6-0.6-2.1s-1-0.7-1.8-0.7c-0.7,0-1.3,0.3-1.8,0.8
			c-0.5,0.5-0.9,1.2-1,2.1H429.5z"/>
		<path class="st14" d="M441.2,607.8h-1.4v-5.5c0-2.1-0.8-3.1-2.3-3.1c-0.8,0-1.4,0.3-1.9,0.9c-0.5,0.6-0.8,1.3-0.8,2.2v5.5h-1.4
			v-9.6h1.4v1.6h0c0.7-1.2,1.8-1.8,3.1-1.8c1,0,1.9,0.3,2.4,1s0.8,1.7,0.8,2.9V607.8z"/>
		<path class="st14" d="M450.6,607.4c-0.7,0.5-1.6,0.7-2.6,0.7c-1.4,0-2.4-0.4-3.3-1.3c-0.8-0.9-1.2-2-1.2-3.5
			c0-1.6,0.4-2.9,1.3-3.8c0.9-1,2.1-1.4,3.6-1.4c0.8,0,1.6,0.2,2.2,0.5v1.5c-0.7-0.5-1.5-0.8-2.3-0.8c-1,0-1.8,0.4-2.4,1.1
			c-0.6,0.7-1,1.6-1,2.8c0,1.1,0.3,2,0.9,2.7c0.6,0.7,1.4,1,2.4,1c0.8,0,1.6-0.3,2.4-0.8V607.4z"/>
		<path class="st14" d="M460.6,603.4h-6.8c0,1.1,0.3,1.9,0.9,2.5c0.6,0.6,1.3,0.9,2.3,0.9c1.1,0,2.1-0.4,3-1.1v1.4
			c-0.8,0.6-1.9,0.9-3.3,0.9c-1.3,0-2.4-0.4-3.2-1.3c-0.8-0.9-1.2-2.1-1.2-3.7c0-1.5,0.4-2.7,1.2-3.6c0.8-1,1.9-1.4,3.1-1.4
			c1.2,0,2.2,0.4,2.9,1.2s1,1.9,1,3.4V603.4z M459.1,602.1c0-0.9-0.2-1.6-0.6-2.1s-1-0.7-1.8-0.7c-0.7,0-1.3,0.3-1.8,0.8
			c-0.5,0.5-0.9,1.2-1,2.1H459.1z"/>
		<path class="st14" d="M469,602.8v5.1h-1.5v-13.4h3.6c1.4,0,2.5,0.3,3.3,1c0.8,0.7,1.2,1.7,1.2,2.9c0,1.3-0.5,2.4-1.4,3.2
			s-2.1,1.2-3.4,1.1H469z M469,595.8v5.6h1.7c1.1,0,1.9-0.2,2.5-0.7c0.6-0.5,0.9-1.2,0.9-2.1c0-1.8-1.1-2.7-3.2-2.7H469z"/>
		<path class="st14" d="M478,607.8v-14.2h1.4v14.2H478z"/>
		<path class="st14" d="M482.8,599c0.9-0.6,2-0.9,3.2-0.9c2.2,0,3.3,1.2,3.3,3.5v6.3h-1.4v-1.5h-0.1c-0.7,1.2-1.6,1.7-2.9,1.7
			c-0.9,0-1.7-0.3-2.2-0.8s-0.8-1.2-0.8-2c0-1.8,1-2.8,3.1-3.1l2.9-0.4c0-1.7-0.7-2.5-2-2.5c-1.2,0-2.2,0.4-3.1,1.2V599z
			 M485.6,603.3c-0.8,0.1-1.4,0.3-1.7,0.6c-0.3,0.3-0.5,0.7-0.5,1.3c0,0.5,0.2,0.9,0.5,1.2s0.8,0.5,1.3,0.5c0.8,0,1.4-0.3,1.9-0.8
			c0.5-0.5,0.8-1.2,0.8-2.1v-1L485.6,603.3z"/>
		<path class="st14" d="M496.7,607.7c-0.4,0.2-0.8,0.3-1.4,0.3c-1.6,0-2.5-0.9-2.5-2.8v-5.8h-1.7v-1.2h1.7v-2.4l1.4-0.5v2.8h2.4v1.2
			h-2.4v5.5c0,0.7,0.1,1.1,0.3,1.4c0.2,0.3,0.6,0.4,1.1,0.4c0.4,0,0.7-0.1,1-0.3V607.7z"/>
		<path class="st14" d="M503.4,595c-0.3-0.2-0.6-0.2-1-0.2c-1.1,0-1.6,0.7-1.6,2.1v1.5h2.2v1.2h-2.2v8.3h-1.4v-8.3h-1.6v-1.2h1.6
			v-1.6c0-1,0.3-1.8,0.9-2.4c0.6-0.6,1.3-0.9,2.1-0.9c0.5,0,0.8,0.1,1.1,0.2V595z"/>
		<path class="st14" d="M504,603.2c0-1.6,0.4-2.8,1.3-3.8c0.9-0.9,2-1.4,3.5-1.4c1.4,0,2.5,0.4,3.3,1.3c0.8,0.9,1.2,2.1,1.2,3.7
			c0,1.5-0.4,2.7-1.3,3.7s-2,1.4-3.4,1.4c-1.4,0-2.5-0.4-3.3-1.3C504.4,605.8,504,604.7,504,603.2z M505.5,603.1
			c0,1.1,0.3,2,0.9,2.7s1.4,1,2.4,1c1,0,1.8-0.3,2.3-1c0.6-0.7,0.8-1.6,0.8-2.8c0-1.2-0.3-2.2-0.8-2.8c-0.5-0.7-1.3-1-2.3-1
			c-1,0-1.8,0.3-2.4,1S505.5,601.9,505.5,603.1z"/>
		<path class="st14" d="M520.7,599.7c-0.3-0.2-0.6-0.3-1.2-0.3c-0.7,0-1.2,0.3-1.7,1c-0.4,0.6-0.7,1.5-0.7,2.5v4.9h-1.4v-9.6h1.4v2
			h0c0.2-0.7,0.6-1.2,1-1.6c0.5-0.4,0.9-0.6,1.5-0.6c0.4,0,0.7,0,0.9,0.1V599.7z"/>
		<path class="st14" d="M535.9,607.8h-1.4v-5.5c0-1.1-0.2-1.9-0.5-2.4c-0.3-0.5-0.9-0.7-1.7-0.7c-0.7,0-1.2,0.3-1.7,0.9
			c-0.5,0.6-0.7,1.3-0.7,2.2v5.5h-1.4v-5.7c0-1.9-0.7-2.9-2.2-2.9c-0.7,0-1.2,0.3-1.7,0.9c-0.4,0.6-0.7,1.3-0.7,2.2v5.5h-1.4v-9.6
			h1.4v1.5h0c0.7-1.2,1.7-1.7,3-1.7c0.6,0,1.2,0.2,1.7,0.5c0.5,0.4,0.8,0.8,1,1.4c0.7-1.3,1.8-2,3.2-2c2.1,0,3.2,1.3,3.2,3.9V607.8z
			"/>
	</g>
	<g class="st13">
		<path d="M28.8,631.8c-1,0.5-2.2,0.8-3.7,0.8c-1.9,0-3.4-0.6-4.5-1.9s-1.7-2.8-1.7-4.8c0-2.1,0.6-3.8,1.9-5.1c1.3-1.4,2.9-2,4.9-2
			c1.3,0,2.3,0.2,3.1,0.6v1.6c-1-0.5-2-0.8-3.2-0.8c-1.6,0-2.9,0.5-3.8,1.6c-0.9,1.1-1.4,2.5-1.4,4.1c0,1.6,0.4,2.9,1.3,3.9
			c0.9,1,2.1,1.5,3.6,1.5c1.3,0,2.5-0.3,3.5-0.9V631.8z"/>
		<path d="M31.4,632.4v-14.2h1.4v14.2H31.4z"/>
		<path d="M35.3,627.7c0-1.6,0.4-2.8,1.3-3.8s2-1.4,3.5-1.4c1.4,0,2.5,0.4,3.3,1.3c0.8,0.9,1.2,2.1,1.2,3.7c0,1.5-0.4,2.7-1.3,3.7
			s-2,1.4-3.4,1.4c-1.4,0-2.5-0.4-3.3-1.3C35.8,630.4,35.3,629.2,35.3,627.7z M36.8,627.6c0,1.1,0.3,2,0.9,2.7c0.6,0.7,1.4,1,2.4,1
			c1,0,1.8-0.3,2.3-1c0.6-0.7,0.8-1.6,0.8-2.8c0-1.2-0.3-2.2-0.8-2.8c-0.5-0.7-1.3-1-2.3-1c-1,0-1.8,0.3-2.4,1
			C37.1,625.5,36.8,626.4,36.8,627.6z"/>
		<path d="M54.8,632.4h-1.4v-1.5h0c-0.6,1.2-1.6,1.7-3,1.7c-2.3,0-3.4-1.4-3.4-4.1v-5.7h1.4v5.5c0,2.1,0.8,3.1,2.4,3.1
			c0.8,0,1.4-0.3,1.9-0.9c0.5-0.6,0.7-1.3,0.7-2.2v-5.5h1.4V632.4z"/>
		<path d="M66,632.4h-1.4v-1.6h0c-0.7,1.2-1.8,1.9-3.3,1.9c-1.2,0-2.2-0.4-2.9-1.3c-0.7-0.9-1.1-2-1.1-3.5c0-1.6,0.4-2.8,1.2-3.8
			c0.8-1,1.9-1.4,3.2-1.4c1.3,0,2.3,0.5,2.9,1.6h0v-5.9H66V632.4z M64.6,626.6c0-0.8-0.3-1.4-0.8-2c-0.5-0.5-1.2-0.8-2-0.8
			c-1,0-1.7,0.4-2.3,1.1c-0.5,0.7-0.8,1.7-0.8,2.9c0,1.1,0.3,2,0.8,2.6c0.5,0.7,1.2,1,2.1,1c0.8,0,1.5-0.3,2.1-0.9s0.8-1.4,0.8-2.4
			V626.6z"/>
		<path d="M88.6,620.7H75.8v3.5c0,3.9-0.6,6.9-1.9,9l-0.8-0.6c1.2-2,1.8-4.9,1.8-8.8v-4h6.7c-0.1-0.5-0.3-1.1-0.7-1.9l0.9-0.3
			c0.3,0.8,0.6,1.5,0.7,2.2h6.1V620.7z M88.6,632.8H76.1v-0.9h7.5c1.2-2.5,2.2-5.7,3.1-9.5l0.9,0.3c-0.8,3.5-1.8,6.6-2.9,9.2h4
			V632.8z M80.3,629.9l-0.8,0.3c-0.7-2.5-1.6-4.7-2.7-6.8l0.8-0.4C79,625.7,79.9,628,80.3,629.9z M83.3,629.1l-0.9,0.2
			c-0.2-2.3-0.7-4.7-1.5-7.3l0.9-0.2C82.6,624.6,83.1,627,83.3,629.1z"/>
		<path d="M105.6,632c0,0.5-0.2,0.8-0.5,1c-0.3,0.2-1.1,0.3-2.3,0.3c-0.3,0-0.5,0-0.8,0l-0.3-1c0.4,0,0.9,0.1,1.3,0.1
			c0.8,0,1.3,0,1.5-0.1c0.1-0.1,0.2-0.2,0.2-0.3v-4.3h-5v5.2h-1v-5.2h-5.1c-0.3,2.4-0.9,4.3-1.8,5.6l-0.8-0.6
			c1.2-1.8,1.8-3.9,1.8-6.4v-8.1h12.8V632z M98.6,622.3v-3.2h-5v3.2H98.6z M98.6,626.7v-3.4h-5v3.4H98.6z M104.6,622.3v-3.2h-5v3.2
			H104.6z M104.6,626.7v-3.4h-5v3.4H104.6z"/>
		<path d="M114.7,626.6l-0.6,0.7c-0.4-0.8-0.9-1.5-1.5-2.2v8.2h-0.9V625c-0.8,1.9-1.6,3.3-2.4,4.4l-0.6-0.7c1.2-1.6,2.1-3.5,3-5.7
			h-2.9v-0.9h2.9v-2.6l-2.2,0.4L109,619c2.1-0.2,3.8-0.6,5.1-1.2l0.5,0.8c-0.9,0.3-1.6,0.5-2.1,0.7v2.8h2.1v0.9h-2.1v0.7
			C113.6,624.9,114.3,625.9,114.7,626.6z M124.1,632.8h-10V632h4.5v-2.7h-3.9v-0.9h3.9v-2.6c-1.9,0.1-3.1,0.2-3.5,0.2l-0.4-0.9
			c3.3-0.1,6.1-0.4,8.4-0.9l0.6,0.8c-1.2,0.3-2.6,0.5-4.2,0.7v2.7h3.8v0.9h-3.8v2.7h4.5V632.8z M123,623.1h-7.6v-4.8h7.6V623.1z
			 M122,622.2v-3.1h-5.7v3.1H122z"/>
		<path d="M141.8,620.3h-12.9v5.9h7.3c-1.4-0.8-2.8-1.5-4.2-2l0.6-0.7c0.8,0.3,1.7,0.7,2.9,1.2c1.3-0.6,2.4-1.3,3.4-2.1h-8.4v-0.9
			h9.7v0.9c-0.9,0.9-2.2,1.7-3.8,2.6c0.3,0.2,0.6,0.4,1,0.6l-0.3,0.4h4.5v0.9c-0.7,1.3-1.5,2.3-2.4,3.2l-0.8-0.6
			c0.9-0.8,1.6-1.7,2.1-2.6H136v4.7c0,0.9-0.5,1.4-1.5,1.4c-0.9,0-1.5,0-1.8,0l-0.3-1c0.6,0,1.2,0,1.6,0c0.6,0,0.9,0,1-0.1
			c0.1-0.1,0.1-0.1,0.1-0.3v-4.8h-6.2c-0.1,2.3-0.6,4.4-1.7,6.2l-0.8-0.5c1.1-1.7,1.6-3.8,1.6-6.3v-7.1h6.2
			c-0.2-0.5-0.5-0.9-0.8-1.3l0.9-0.4c0.3,0.4,0.6,1,1,1.7h6.5V620.3z"/>
		<path d="M150.4,619l-6.4,15.6h-1.3l6.4-15.6H150.4z"/>
		<path d="M66.5,641.3h-5.2c-0.7,0.9-1.3,1.5-1.8,2l-0.8-0.5c1.4-1.3,2.4-2.6,3-3.8l0.9,0.3c-0.2,0.4-0.4,0.8-0.7,1.2h4.6V641.3z
			 M73.5,648.9c0,0.6-0.1,1.3-0.2,2.3s-0.3,1.6-0.5,1.8c-0.2,0.2-0.4,0.3-0.6,0.4s-0.7,0.1-1.4,0.1c-0.5,0-1,0-1.6-0.1l-0.3-0.9
			c0.5,0.1,1.4,0.1,2.7,0.1c0.4,0,0.6-0.2,0.8-0.7c0.1-0.5,0.2-1.2,0.3-2.2H67v4.8h-0.9v-4.4c-1.7,1.7-4.1,3-7,3.9l-0.5-0.8
			c2.8-0.9,5-2,6.5-3.5h-5.5l0.7-3.3h5.7v-1.6h-6.6v-0.8h13.4v3.3H67v1.6H73.5z M66.1,648.9v-1.6h-4.9l-0.3,1.6H66.1z M64.5,642.9
			l-0.9,0.4c-0.3-0.5-0.6-1-1-1.4l0.8-0.4C63.9,642,64.2,642.4,64.5,642.9z M74.3,641.3h-5.7c-0.5,0.6-1.2,1.3-1.9,1.9l-0.8-0.6
			c1.3-1,2.4-2.2,3.2-3.6l0.9,0.3c-0.2,0.4-0.4,0.7-0.7,1.1h5.1V641.3z M72,646.4v-1.6h-5v1.6H72z M71.8,643.1l-0.9,0.3
			c-0.3-0.5-0.6-1-1-1.5l0.9-0.4C71.3,642.1,71.6,642.6,71.8,643.1z"/>
		<path d="M91.9,654.1H76.5v-1h15.4V654.1z M91,640.4H77.4v-1H91V640.4z M90.3,647H78.2v-1h12.1V647z"/>
		<path d="M109.6,642.9h-9.7c0,0.9,0,2-0.1,3.1h7.6c0,1.7-0.1,3.3-0.3,4.8s-0.4,2.4-0.6,2.8s-0.4,0.6-0.8,0.8
			c-0.3,0.2-1.1,0.2-2.2,0.2c-0.4,0-0.8,0-1.2,0l-0.3-1c0.6,0,1.1,0.1,1.7,0.1c0.9,0,1.4,0,1.5-0.1c0.2-0.1,0.3-0.2,0.4-0.5
			c0.1-0.2,0.2-1,0.4-2.3c0.2-1.3,0.3-2.6,0.3-3.8h-6.7c-0.2,3.1-1.9,5.6-5,7.6l-0.8-0.7c1.1-0.6,2-1.4,2.9-2.4s1.4-2.1,1.7-3.3
			s0.4-2.9,0.4-5.2h-4.7v-1h7.4c-0.5-0.9-1-1.8-1.7-2.5l0.9-0.4c0.7,0.8,1.3,1.7,1.9,3h6.8V642.9z"/>
	</g>
	<g class="st13">
		<path d="M75.3,770.1l-0.5,0.9c-3-1.1-5.4-2.8-7.4-5c-1.6,1.9-3.9,3.6-7.1,5.1l-0.6-0.8c3.3-1.4,5.8-3.4,7.7-5.9l1,0.2
			c-0.1,0.2-0.2,0.4-0.4,0.5C69.5,767.3,71.9,768.9,75.3,770.1z M75.2,779.7H59.8v-0.9h2.9v-6.6h1v6.6h3.6v-9.9h1v4.1h5.3v0.9h-5.3
			v4.9h7V779.7z"/>
		<path d="M93,779.6H77.6v-0.9h5.2v-14.1h0.9v14.1h3v-14.1h0.9v14.1H93V779.6z M81.7,775.9l-0.9,0.3c-0.3-2.6-1.2-5.6-2.4-9.2
			l0.8-0.3C80.5,770.3,81.3,773.4,81.7,775.9z M92.3,766.8c-0.6,3.6-1.5,6.7-2.7,9.4l-0.8-0.4c1.1-2.5,2-5.5,2.7-9.2L92.3,766.8z"/>
		<path d="M110.9,778.3l-0.6,0.8c-2.8-1.4-5.1-3.3-6.9-5.6v6.5h-1v-6.4c-1.7,2.1-3.9,3.9-6.8,5.4l-0.6-0.8c2.9-1.5,5.3-3.4,6.9-5.5
			h-6.6v-0.9h7v-4.3h-6.4v-0.9h6.4v-2h1v2h6.4v0.9h-6.4v4.3h7.1v0.9H104C105.6,775,107.9,776.8,110.9,778.3z M100.3,771l-0.9,0.4
			c-0.5-0.8-1.2-1.8-2.2-3l0.8-0.4C99.1,769,99.8,770,100.3,771z M108.7,768.4c-0.8,1.2-1.6,2.2-2.4,3l-0.8-0.5
			c0.9-0.9,1.7-1.8,2.4-2.9L108.7,768.4z"/>
		<path d="M116.1,774.1c-0.7,2-1.5,3.9-2.4,5.6L113,779c0.8-1.6,1.6-3.5,2.3-5.4L116.1,774.1z M116.4,771.2l-0.6,0.7
			c-1.2-1-2.2-1.7-2.8-2l0.7-0.7C114.7,769.8,115.6,770.5,116.4,771.2z M116.7,767l-0.7,0.7c-1.1-0.9-2-1.7-2.8-2.2l0.7-0.7
			C115,765.6,115.9,766.3,116.7,767z M128.5,765.9h-4.2c-0.1,0.5-0.3,1.1-0.5,1.9h3.9v6.1h-3.4v4.8c0,0.3-0.1,0.6-0.3,0.9
			c-0.2,0.3-0.8,0.4-1.6,0.4c-0.3,0-0.6,0-0.9-0.1l-0.3-0.9c0.4,0.1,0.8,0.1,1.2,0.1c0.4,0,0.7,0,0.8-0.1s0.1-0.2,0.1-0.3v-4.9H120
			v-6.1h2.8c0.1-0.4,0.3-1,0.5-1.9h-4.8v5.7c0,3.2-0.8,6-2.3,8.4l-0.8-0.7c0.6-0.8,1.1-1.9,1.5-3.3c0.4-1.4,0.6-3.4,0.6-6.1V765
			h10.9V765.9z M121.9,775.6c-1.1,1.6-2.1,2.7-3,3.4l-0.6-0.7c1.2-1.1,2.1-2.3,2.9-3.4L121.9,775.6z M126.7,770.3v-1.7H121v1.7
			H126.7z M126.7,773v-1.8H121v1.8H126.7z M128.6,778.4l-0.7,0.7c-0.7-1.2-1.5-2.3-2.5-3.4l0.7-0.6
			C127.2,776.2,128,777.4,128.6,778.4z"/>
	</g>
	<g class="st13">
		<path class="st15" d="M389.4,726.5H383c-1.5,2.4-4.2,4-8.3,4.8l-0.6-0.8c3.6-0.7,6.2-2,7.7-4h-7.6v-0.9h8.1
			c0.5-1.6,0.8-3.7,0.7-6.4l0.9,0c0,2.3-0.2,4.4-0.6,6.4h6.1V726.5z M389,720.9h-0.9v-2.3h-12.5v2.3h-0.9v-3.1h7
			c-0.2-0.6-0.5-1.2-0.9-1.8l0.9-0.4c0.4,0.6,0.7,1.4,1.1,2.2h6.3V720.9z M380.7,724l-0.5,0.8c-1.2-0.6-2.6-1.1-4.4-1.6l0.5-0.8
			C378.1,722.8,379.5,723.3,380.7,724z M381.8,721.5l-0.5,0.8c-1.3-0.7-2.7-1.4-4.3-1.9l0.4-0.8
			C379.1,720.1,380.6,720.8,381.8,721.5z M389.6,730.7l-0.6,0.7c-1.4-1.1-3.2-2.2-5.5-3.3l0.6-0.7
			C386.4,728.5,388.3,729.7,389.6,730.7z"/>
		<path class="st15" d="M397.4,730h-0.9v-1.1h-3v1.5h-0.9V717h4.8V730z M396.4,722.5v-4.5h-3v4.5H396.4z M396.4,728v-4.7h-3v4.7
			H396.4z M407.2,720.3h-1.9v9.7c0,0.3-0.1,0.6-0.3,0.8c-0.2,0.2-0.4,0.4-0.7,0.4c-0.3,0.1-0.7,0.1-1.4,0.1c-0.4,0-0.8,0-1.4,0
			l-0.4-0.9c1.6,0,2.6,0,2.9,0c0.3,0,0.4-0.2,0.4-0.4v-9.7H398v-0.9h6.3v-3.5h0.9v3.5h1.9V720.3z M402.5,726.6l-0.8,0.5
			c-0.6-1.5-1.5-3-2.5-4.6l0.8-0.5C401,723.6,401.8,725.1,402.5,726.6z"/>
		<path class="st15" d="M425.1,725.3l-0.4,0.9c-3-0.4-5.4-1-7.3-2c-2,0.8-4.4,1.5-7.2,1.9l-0.6-0.9c2.7-0.4,4.9-0.9,6.7-1.6
			c-1-0.6-1.9-1.3-2.6-2c-0.9,0.7-1.7,1.2-2.5,1.7l-0.6-0.7c2.1-1.2,3.7-2.5,4.6-4.1l0.9,0.4c-0.3,0.5-0.6,0.9-0.8,1.2h6.9v0.9
			c-0.9,1-2.1,1.9-3.8,2.8C420.1,724.5,422.4,725,425.1,725.3z M424.3,721h-0.9v-2.8h-12.3v2.8h-0.9v-3.7h6.8
			c-0.1-0.3-0.4-0.8-0.8-1.3l1-0.3c0.3,0.5,0.6,1,0.9,1.6h6.3V721z M422.5,731.3h-0.9v-0.8h-8.7v0.8H412v-4.9h10.5V731.3z
			 M421.6,729.6v-2.3h-8.7v2.3H421.6z M420.8,721h-6.3l-0.1,0.1c0.8,0.9,1.8,1.6,3,2.2C418.8,722.6,419.9,721.8,420.8,721z"/>
		<path class="st15" d="M441.4,723.1h-11.6c0,3.7-0.7,6.4-2.1,8.2l-0.7-0.5c1.3-1.8,1.9-4.4,1.9-7.8v-5.1h5.9
			c-0.3-0.6-0.7-1.3-1-1.9l0.9-0.3c0.4,0.5,0.7,1.3,1.2,2.1h5.6V723.1z M440.5,722.2v-3.4h-10.7v3.4H440.5z"/>
		<path class="st15" d="M450.7,723.9l-0.7,0.7c-0.5-0.9-1.1-1.7-1.6-2.3v9h-0.9v-8.9c-0.7,1.8-1.4,3.2-2.1,4.2l-0.6-0.7
			c1.1-1.6,2-3.5,2.7-5.5h-2.4v-0.9h2.5v-3.6h0.9v3.6h2.2v0.9h-2.2v0.7C449.4,722,450.2,723,450.7,723.9z M453.5,720.7l-0.8,0.4
			c-0.6-1.5-1.5-2.9-2.5-4.3l0.8-0.5C452,717.8,452.9,719.3,453.5,720.7z M459.7,731.3h-0.9v-0.8h-8.3v-0.9h8.3v-3h-7.5v-0.9h7.5
			v-2.8h-8.2v-0.8h4.2v-6.3h0.9v6.3h3.9V731.3z M460.1,716.7c-0.5,1.5-1.3,3-2.2,4.5l-0.8-0.5c0.9-1.3,1.6-2.8,2.2-4.4L460.1,716.7z
			"/>
		<path class="st15" d="M478.1,726.7h-7.2v4.6H470v-4.6h-7.2v-0.9h7.2v-1.3h0.9v1.3h7.2V726.7z M468.4,728c-1.5,1.2-3.1,2.2-4.9,3
			l-0.6-0.7c1.9-0.8,3.4-1.7,4.7-2.8L468.4,728z M477.6,720.7h-4.1c-0.5,0.8-1.1,1.4-1.7,2c1.8,0.5,3.6,1,5.5,1.7l-0.5,0.8
			c-1.5-0.6-3.4-1.2-5.8-1.8c-1.6,1-4,1.5-7.4,1.6l-0.5-0.9c3.1,0,5.3-0.3,6.6-1c-1.5-0.4-2.9-0.7-4.2-0.9c0.5-0.5,0.9-0.9,1.4-1.5
			h-3.6v-0.8h4.3c0.5-0.6,0.9-1.1,1.3-1.7l0.8,0.4c-0.3,0.5-0.7,1-1,1.4h4.2c0.2-0.3,0.4-0.6,0.5-0.9l0.9,0.2
			c-0.1,0.2-0.2,0.4-0.3,0.7h3.6V720.7z M477.4,719.1h-0.9V718h-12.1v1.1h-0.9v-2h6.6c-0.1-0.3-0.3-0.7-0.6-1.1l0.9-0.3
			c0.2,0.3,0.4,0.7,0.8,1.3h6.2V719.1z M472.3,720.7H468c-0.2,0.3-0.5,0.6-0.8,0.9c0.7,0.1,1.9,0.4,3.5,0.8
			C471.2,722.1,471.8,721.5,472.3,720.7z M478,730.2l-0.7,0.7c-1.4-1-3-1.9-5-2.7l0.7-0.7C475.1,728.4,476.7,729.3,478,730.2z"/>
	</g>
	<g class="st13">
		<path class="st15" d="M579.6,699.5c-0.8,0.7-1.6,1.4-2.5,2.1v4.6c0,0.4-0.1,0.8-0.3,1c-0.2,0.2-0.6,0.3-1.1,0.4
			c-0.6,0-1.1,0-1.7,0c-0.4,0-0.7,0-1,0l-0.2-0.9c0.8,0,1.5,0,2,0c0.7,0,1.2,0,1.3-0.1s0.2-0.2,0.2-0.5v-3.9
			c-2.3,1.9-6,3.6-11.2,5.2l-0.4-0.8c4.4-1.2,7.8-2.7,10.3-4.4c-3.4,0.5-6.7,0.8-9.8,1l-0.2-0.9c0.6,0,1.2,0,1.8-0.1v-7.8h2.1
			c0.7-0.7,1.1-1.2,1.4-1.6l1,0.2c-0.2,0.3-0.6,0.8-1.2,1.4h7.1v6.1c0.5-0.3,1.1-0.9,1.9-1.6L579.6,699.5z M576.3,696.6v-1.4h-8.7
			v1.4H576.3z M576.3,699v-1.5h-8.7v1.5H576.3z M576.3,701.1v-1.2h-8.7v2.1C569.9,701.9,572.8,701.6,576.3,701.1z"/>
		<path class="st15" d="M586.5,693.1c-0.2,0.5-0.5,1.2-0.9,1.9l-0.6,1.1v11.4h-0.9v-9.9c-0.8,1.2-1.5,2.1-2.2,2.7l-0.4-0.9
			c1.5-1.4,2.9-3.6,4.1-6.5L586.5,693.1z M589.9,693.1c-1,2.4-2.1,4.3-3.4,5.6l-0.8-0.5c1.2-1.2,2.3-2.9,3.3-5.3L589.9,693.1z
			 M595.1,699c0,0.5,0,1,0,1.4c0,1.4-0.1,2.8-0.2,4c-0.1,1.2-0.3,1.9-0.4,2.2s-0.4,0.5-0.7,0.7c-0.3,0.2-0.9,0.3-1.6,0.3
			c-0.3,0-0.7,0-1-0.1l-0.3-0.9c0.5,0,1,0.1,1.4,0.1c0.6,0,0.9-0.1,1.1-0.2c0.2-0.1,0.3-0.3,0.4-0.6c0.1-0.3,0.2-1.1,0.3-2.4
			s0.1-2.5,0.1-3.6h-3.4c-0.2,1.7-0.6,3.1-1.3,4.3c-0.7,1.2-1.8,2.4-3.3,3.4l-0.6-0.7c2.7-1.7,4.2-4.1,4.3-7h-3.3V699H595.1z
			 M596.5,698l-0.6,0.7c-1.3-1-2.4-2.6-3.4-4.7h-1.3v-0.9h1.9C594,695.4,595.2,697,596.5,698z"/>
		<path class="st15" d="M612.5,707.7h-0.9v-1h-11.5v1h-0.9v-14.4h13.2V707.7z M611.6,705.9v-11.7h-11.5v11.7H611.6z M611.4,701.1
			l-0.3,0.8c-2.1-0.4-3.8-1.1-5-1.9c-1.3,0.8-3,1.4-5.1,1.8l-0.4-0.8c1.9-0.4,3.5-0.9,4.7-1.6c-0.8-0.6-1.6-1.3-2.2-2.1
			c-0.5,0.5-1,0.9-1.6,1.3l-0.6-0.6c1.3-0.8,2.6-2.1,3.8-3.7l0.8,0.4l-0.9,1.1h5.1v0.7c-0.8,1.2-1.8,2.2-2.8,2.9
			C608,700.1,609.5,700.7,611.4,701.1z M609,704.9l-0.4,0.7c-1.8-0.8-3.8-1.3-5.9-1.7l0.4-0.7C605.5,703.6,607.5,704.2,609,704.9z
			 M608.7,696.6h-4.8c-0.1,0.1-0.1,0.2-0.2,0.2c0.7,0.9,1.6,1.6,2.5,2.2C607,698.4,607.8,697.6,608.7,696.6z M609.1,702.7l-0.4,0.7
			c-1.4-0.6-3-1.1-4.7-1.5l0.4-0.7C606.5,701.7,608.1,702.2,609.1,702.7z"/>
	</g>
	<g class="st13">
		<path class="st15" d="M571.8,737.6c-1.4,3.1-3.2,5.4-5.4,7l-0.6-0.7c2.2-1.5,3.9-3.6,5.1-6.5L571.8,737.6z M577.9,743.5
			c0,1.8-0.1,3.4-0.3,4.9s-0.4,2.3-0.6,2.7c-0.2,0.3-0.4,0.6-0.8,0.7c-0.3,0.1-0.9,0.2-1.7,0.2c-0.3,0-0.8,0-1.3,0l-0.2-0.9
			c0.6,0.1,1.2,0.1,1.7,0.1c0.5,0,0.8,0,1-0.1c0.1-0.1,0.3-0.2,0.4-0.3s0.2-0.5,0.4-1.1c0.1-0.6,0.2-1.4,0.3-2.3
			c0.1-0.9,0.1-1.9,0.2-3h-4.3c-0.4,3.3-2.2,5.9-5.6,7.8l-0.5-0.7c3.1-1.7,4.8-4.1,5.2-7.1h-3.2v-0.9H577.9z M580.7,743.7l-0.6,0.8
			c-2.2-1.6-3.8-3.7-4.6-6.2h-1.3v-0.9h1.9C576.9,740.2,578.4,742.3,580.7,743.7z"/>
		<path class="st15" d="M589.4,747.5c-1.1,0.3-2.6,0.6-4.6,1v3.5H584v-3.3c-0.4,0.1-0.7,0.1-1.1,0.1l-0.2-0.9
			c0.6-0.1,1.1-0.1,1.3-0.1v-9.4c2-0.3,3.7-0.7,4.9-1.2l0.4,0.8c-1.2,0.4-2.7,0.8-4.5,1.1v2h3.8v0.8h-3.8v2.2h3.8v0.8h-3.8v2.7
			c1.3-0.2,2.8-0.5,4.6-1V747.5z M597.6,751.3L597,752c-1.4-0.6-2.7-1.4-3.7-2.2c-1.2,0.9-2.8,1.6-4.8,2.2l-0.4-0.8
			c1.9-0.5,3.5-1.1,4.6-1.9c-0.9-1-1.8-2.3-2.4-4h-0.6v-0.9h6.9c-0.6,2.1-1.4,3.7-2.6,4.8C595.1,750.1,596.3,750.8,597.6,751.3z
			 M597.5,743h-1.7c-0.8,0-1.1-0.4-1.1-1.2v-3.4h-2.9c0,2.4-0.7,4.1-2.2,5.2l-0.8-0.6c0.7-0.4,1.2-1,1.6-1.7
			c0.3-0.7,0.5-1.7,0.5-2.9v-0.7h4.6v4.2c0,0.3,0.2,0.4,0.5,0.4h1.6V743z M595.3,745.3h-4.2c0.6,1.4,1.3,2.5,2.2,3.4
			C594.1,747.8,594.8,746.7,595.3,745.3z"/>
	</g>
	<g class="st13">
		<path class="st15" d="M1002.7,482.5h-6.4c-1.5,2.4-4.2,4-8.3,4.8l-0.6-0.8c3.6-0.7,6.2-2,7.7-4h-7.6v-0.9h8.1
			c0.5-1.6,0.8-3.7,0.7-6.4l0.9,0c0,2.3-0.2,4.4-0.6,6.4h6.1V482.5z M1002.3,476.9h-0.9v-2.3h-12.5v2.3H988v-3.1h7
			c-0.2-0.6-0.5-1.2-0.9-1.8l0.9-0.4c0.4,0.6,0.7,1.4,1.1,2.2h6.3V476.9z M994,479.9l-0.5,0.8c-1.2-0.6-2.6-1.1-4.4-1.6l0.5-0.8
			C991.4,478.8,992.9,479.3,994,479.9z M995.1,477.5l-0.5,0.8c-1.3-0.7-2.7-1.4-4.3-1.9l0.4-0.8
			C992.5,476.1,993.9,476.7,995.1,477.5z M1002.9,486.7l-0.6,0.7c-1.4-1.1-3.2-2.2-5.5-3.3l0.6-0.7
			C999.8,484.5,1001.6,485.6,1002.9,486.7z"/>
		<path class="st15" d="M1010.7,486h-0.9v-1.1h-3v1.5h-0.9V473h4.8V486z M1009.8,478.4v-4.5h-3v4.5H1009.8z M1009.8,484v-4.7h-3v4.7
			H1009.8z M1020.5,476.3h-1.9v9.7c0,0.3-0.1,0.6-0.3,0.8c-0.2,0.2-0.4,0.4-0.7,0.4s-0.7,0.1-1.4,0.1c-0.4,0-0.8,0-1.4,0l-0.4-0.9
			c1.6,0,2.6,0,2.9,0c0.3,0,0.4-0.2,0.4-0.4v-9.7h-6.3v-0.9h6.3v-3.5h0.9v3.5h1.9V476.3z M1015.8,482.6l-0.8,0.5
			c-0.6-1.5-1.5-3-2.5-4.6l0.8-0.5C1014.4,479.5,1015.2,481.1,1015.8,482.6z"/>
		<path class="st15" d="M1029.1,472.1c-1.4,3.3-3.3,5.7-5.6,7.3l-0.6-0.7c2.3-1.5,4.1-3.8,5.4-6.9L1029.1,472.1z M1035.5,478.3
			c0,1.9-0.1,3.6-0.3,5.1c-0.2,1.5-0.4,2.4-0.6,2.8s-0.5,0.6-0.8,0.8c-0.3,0.2-0.9,0.2-1.8,0.2c-0.4,0-0.8,0-1.4,0l-0.2-1
			c0.6,0.1,1.2,0.1,1.8,0.1c0.5,0,0.9,0,1-0.1c0.2-0.1,0.3-0.2,0.4-0.3s0.2-0.5,0.4-1.2c0.1-0.6,0.2-1.4,0.3-2.4
			c0.1-0.9,0.1-2,0.2-3.1h-4.5c-0.4,3.5-2.3,6.2-5.8,8.2l-0.6-0.7c3.2-1.8,5-4.3,5.4-7.5h-3.3v-0.9H1035.5z M1038.4,478.6l-0.6,0.8
			c-2.3-1.7-4-3.8-4.9-6.5h-1.3v-1h2C1034.5,474.8,1036.1,477.1,1038.4,478.6z"/>
		<path class="st15" d="M1047.5,482.6c-1.2,0.3-2.8,0.7-4.8,1v3.6h-0.9v-3.5c-0.4,0.1-0.8,0.1-1.1,0.1l-0.2-0.9
			c0.7-0.1,1.1-0.1,1.3-0.2V473c2.1-0.3,3.9-0.7,5.2-1.3l0.4,0.8c-1.2,0.5-2.8,0.8-4.7,1.2v2.1h3.9v0.8h-3.9v2.3h3.9v0.8h-3.9v2.8
			c1.3-0.2,2.9-0.5,4.8-1V482.6z M1056.1,486.5l-0.6,0.8c-1.5-0.7-2.8-1.4-3.9-2.3c-1.2,0.9-2.9,1.7-5,2.3l-0.4-0.9
			c2-0.5,3.6-1.2,4.8-2c-1-1-1.8-2.4-2.6-4.2h-0.6v-0.9h7.3c-0.6,2.2-1.5,3.9-2.7,5.1C1053.5,485.2,1054.7,486,1056.1,486.5z
			 M1056,477.9h-1.8c-0.8,0-1.2-0.4-1.2-1.3V473h-3.1c0,2.5-0.7,4.3-2.3,5.4l-0.8-0.6c0.7-0.4,1.3-1,1.7-1.8
			c0.4-0.8,0.5-1.8,0.5-3.1v-0.8h4.9v4.4c0,0.3,0.2,0.5,0.5,0.5h1.6V477.9z M1053.8,480.2h-4.4c0.6,1.5,1.3,2.6,2.3,3.5
			C1052.5,482.8,1053.2,481.7,1053.8,480.2z"/>
	</g>
	<g class="st13">
		<path class="st16" d="M692.9,438.3h-7.4v-14h7.1v1.4h-5.5v4.8h5.1v1.4h-5.1v5h5.8V438.3z"/>
		<path class="st16" d="M703.9,438.3h-1.5v-1.7h0c-0.7,1.3-1.9,2-3.5,2c-1.3,0-2.3-0.5-3-1.4c-0.7-0.9-1.1-2.1-1.1-3.7
			c0-1.6,0.4-3,1.3-4s1.9-1.5,3.3-1.5c1.4,0,2.4,0.5,3,1.6h0v-6.2h1.5V438.3z M702.4,432.3c0-0.8-0.3-1.5-0.8-2.1
			c-0.6-0.6-1.2-0.9-2-0.9c-1,0-1.8,0.4-2.4,1.1s-0.9,1.7-0.9,3c0,1.2,0.3,2.1,0.8,2.8c0.5,0.7,1.3,1,2.2,1c0.9,0,1.6-0.3,2.2-1
			c0.6-0.6,0.9-1.5,0.9-2.5V432.3z"/>
		<path class="st16" d="M715.6,437.5c0,3.7-1.7,5.5-5.2,5.5c-1.2,0-2.3-0.2-3.2-0.7v-1.5c1.1,0.6,2.2,0.9,3.2,0.9
			c2.5,0,3.7-1.3,3.7-4v-1.1h0c-0.8,1.3-1.9,1.9-3.5,1.9c-1.3,0-2.3-0.4-3-1.3c-0.8-0.9-1.1-2.1-1.1-3.6c0-1.7,0.4-3.1,1.2-4.1
			c0.8-1,1.9-1.5,3.3-1.5c1.4,0,2.4,0.5,3,1.6h0v-1.4h1.5V437.5z M714.1,432.3c0-0.8-0.3-1.5-0.8-2.1s-1.2-0.9-2-0.9
			c-1,0-1.8,0.4-2.4,1.1c-0.6,0.7-0.9,1.8-0.9,3.1c0,1.1,0.3,2,0.8,2.7s1.3,1,2.2,1c0.9,0,1.6-0.3,2.2-1c0.6-0.6,0.9-1.5,0.9-2.5
			V432.3z"/>
		<path class="st16" d="M726.9,433.7h-7.1c0,1.2,0.3,2,0.9,2.7s1.4,0.9,2.4,0.9c1.1,0,2.2-0.4,3.1-1.1v1.4c-0.9,0.7-2,1-3.5,1
			c-1.4,0-2.5-0.5-3.3-1.4s-1.2-2.2-1.2-3.8c0-1.5,0.4-2.8,1.3-3.8s2-1.5,3.3-1.5c1.3,0,2.3,0.4,3,1.3c0.7,0.8,1.1,2,1.1,3.5V433.7z
			 M725.3,432.4c0-0.9-0.2-1.7-0.7-2.2c-0.4-0.5-1.1-0.8-1.9-0.8c-0.7,0-1.4,0.3-1.9,0.8c-0.6,0.5-0.9,1.3-1,2.2H725.3z"/>
		<path class="st16" d="M745.4,438.3h-1.9l-7.3-11.3c-0.2-0.3-0.3-0.5-0.4-0.8h-0.1c0,0.3,0.1,0.9,0.1,1.9v10.3h-1.5v-14h2l7.1,11.2
			c0.4,0.6,0.6,0.9,0.6,1h0c-0.1-0.5-0.1-1.2-0.1-2.1v-10.1h1.5V438.3z"/>
		<path class="st16" d="M756.9,433.7h-7.1c0,1.2,0.3,2,0.9,2.7s1.4,0.9,2.4,0.9c1.1,0,2.2-0.4,3.1-1.1v1.4c-0.9,0.7-2,1-3.5,1
			c-1.4,0-2.5-0.5-3.3-1.4s-1.2-2.2-1.2-3.8c0-1.5,0.4-2.8,1.3-3.8s2-1.5,3.3-1.5c1.3,0,2.3,0.4,3,1.3c0.7,0.8,1.1,2,1.1,3.5V433.7z
			 M755.4,432.4c0-0.9-0.2-1.7-0.7-2.2c-0.4-0.5-1.1-0.8-1.9-0.8c-0.7,0-1.4,0.3-1.9,0.8c-0.6,0.5-0.9,1.3-1,2.2H755.4z"/>
		<path class="st16" d="M763.9,438.2c-0.4,0.2-0.9,0.3-1.5,0.3c-1.7,0-2.6-1-2.6-2.9v-6h-1.7v-1.3h1.7v-2.5l1.5-0.5v3h2.5v1.3h-2.5
			v5.7c0,0.7,0.1,1.2,0.3,1.5c0.2,0.3,0.6,0.4,1.1,0.4c0.4,0,0.8-0.1,1-0.3V438.2z"/>
		<path class="st16" d="M778.6,428.3l-3,10H774l-2.1-7.3c-0.1-0.3-0.1-0.6-0.2-0.9h0c0,0.2-0.1,0.5-0.2,0.9l-2.3,7.3h-1.5l-3-10h1.6
			l2.1,7.6c0.1,0.2,0.1,0.5,0.1,0.9h0.1c0-0.3,0.1-0.6,0.2-0.9l2.3-7.6h1.4l2.1,7.6c0.1,0.2,0.1,0.5,0.1,0.9h0.1
			c0-0.2,0.1-0.5,0.2-0.9l2.1-7.6H778.6z"/>
		<path class="st16" d="M779.7,433.5c0-1.7,0.5-3,1.4-3.9c0.9-1,2.1-1.4,3.7-1.4c1.5,0,2.6,0.5,3.5,1.4c0.8,0.9,1.3,2.2,1.3,3.8
			c0,1.6-0.5,2.9-1.4,3.8s-2.1,1.4-3.6,1.4c-1.4,0-2.6-0.5-3.5-1.4C780.2,436.2,779.7,435,779.7,433.5z M781.3,433.4
			c0,1.2,0.3,2.1,0.9,2.8c0.6,0.7,1.4,1.1,2.5,1.1c1.1,0,1.9-0.3,2.4-1c0.6-0.7,0.9-1.7,0.9-2.9c0-1.3-0.3-2.3-0.9-2.9
			c-0.6-0.7-1.4-1-2.4-1c-1,0-1.9,0.4-2.5,1.1C781.6,431.2,781.3,432.1,781.3,433.4z"/>
		<path class="st16" d="M797.3,429.9c-0.3-0.2-0.7-0.3-1.2-0.3c-0.7,0-1.3,0.3-1.7,1s-0.7,1.6-0.7,2.6v5.1h-1.5v-10h1.5v2.1h0
			c0.2-0.7,0.6-1.3,1-1.7s1-0.6,1.6-0.6c0.4,0,0.8,0,1,0.1V429.9z"/>
		<path class="st16" d="M807.2,438.3h-2.1l-4.5-4.8h0v4.8H799v-14.8h1.5v9.4h0l4.3-4.6h2l-4.7,4.8L807.2,438.3z"/>
	</g>
	<g class="st13">
		<path class="st16" d="M375.2,667.3h-1.8l-2.4-3.9c-0.5-0.8-1-1.4-1.4-1.7c-0.4-0.3-0.9-0.4-1.4-0.4h-1.4v6h-1.5v-14h4.1
			c1.3,0,2.3,0.3,3.1,1s1.1,1.6,1.1,2.7c0,1.9-1,3.2-3.1,3.8v0c0.4,0.2,0.7,0.4,1,0.7s0.6,0.8,1.1,1.6L375.2,667.3z M366.8,654.7
			v5.2h2.3c0.9,0,1.5-0.2,2.1-0.7c0.5-0.5,0.8-1.2,0.8-2c0-0.8-0.2-1.4-0.7-1.8c-0.5-0.4-1.2-0.6-2.1-0.6H366.8z"/>
		<path class="st16" d="M384.4,662.6h-7.1c0,1.2,0.3,2,0.9,2.7c0.6,0.6,1.4,0.9,2.4,0.9c1.1,0,2.2-0.4,3.1-1.1v1.4
			c-0.9,0.7-2,1-3.5,1c-1.4,0-2.5-0.5-3.3-1.4s-1.2-2.2-1.2-3.8c0-1.5,0.4-2.8,1.3-3.8s2-1.5,3.3-1.5c1.3,0,2.3,0.4,3,1.3
			s1.1,2,1.1,3.5V662.6z M382.8,661.3c0-0.9-0.2-1.7-0.7-2.2c-0.4-0.5-1.1-0.8-1.9-0.8c-0.7,0-1.4,0.3-1.9,0.8
			c-0.6,0.5-0.9,1.3-1,2.2H382.8z"/>
		<path class="st16" d="M387.1,658c1-0.6,2.1-1,3.4-1c2.3,0,3.5,1.2,3.5,3.7v6.5h-1.5v-1.6h-0.1c-0.7,1.2-1.7,1.8-3.1,1.8
			c-1,0-1.8-0.3-2.3-0.8c-0.6-0.5-0.9-1.2-0.9-2.1c0-1.9,1.1-2.9,3.3-3.2l3-0.4c0-1.7-0.7-2.6-2.1-2.6c-1.2,0-2.3,0.4-3.3,1.2V658z
			 M390,662.5c-0.9,0.1-1.5,0.3-1.8,0.6s-0.5,0.8-0.5,1.4c0,0.5,0.2,0.9,0.5,1.2c0.4,0.3,0.8,0.5,1.4,0.5c0.8,0,1.5-0.3,2-0.9
			c0.5-0.6,0.8-1.3,0.8-2.1v-1L390,662.5z"/>
		<path class="st16" d="M397,667.3v-14.8h1.5v14.8H397z"/>
		<path class="st16" d="M406.9,662.3h-5.3v-1.2h5.3V662.3z"/>
		<path class="st16" d="M414.3,667.2c-0.4,0.2-0.9,0.3-1.5,0.3c-1.7,0-2.6-1-2.6-2.9v-6h-1.7v-1.3h1.7v-2.5l1.5-0.5v3h2.5v1.3h-2.5
			v5.7c0,0.7,0.1,1.2,0.3,1.5c0.2,0.3,0.6,0.4,1.1,0.4c0.4,0,0.8-0.1,1-0.3V667.2z"/>
		<path class="st16" d="M416.3,653.6c0-0.3,0.1-0.5,0.3-0.7s0.4-0.3,0.7-0.3c0.3,0,0.5,0.1,0.7,0.3s0.3,0.4,0.3,0.7
			c0,0.3-0.1,0.5-0.3,0.7s-0.4,0.3-0.7,0.3s-0.5-0.1-0.7-0.3S416.3,653.9,416.3,653.6z M416.5,667.3v-10h1.5v10H416.5z"/>
		<path class="st16" d="M435.4,667.3h-1.5v-5.7c0-1.2-0.2-2-0.5-2.5c-0.4-0.5-0.9-0.7-1.8-0.7c-0.7,0-1.3,0.3-1.8,1
			c-0.5,0.6-0.7,1.4-0.7,2.3v5.7h-1.5v-6c0-2-0.8-3-2.3-3c-0.7,0-1.3,0.3-1.8,0.9c-0.5,0.6-0.7,1.4-0.7,2.3v5.7h-1.5v-10h1.5v1.6h0
			c0.7-1.2,1.7-1.8,3.1-1.8c0.7,0,1.2,0.2,1.8,0.6c0.5,0.4,0.9,0.9,1.1,1.5c0.7-1.4,1.9-2.1,3.3-2.1c2.2,0,3.3,1.4,3.3,4.1V667.3z"
			/>
		<path class="st16" d="M446.5,662.6h-7.1c0,1.2,0.3,2,0.9,2.7c0.6,0.6,1.4,0.9,2.4,0.9c1.1,0,2.2-0.4,3.1-1.1v1.4
			c-0.9,0.7-2,1-3.5,1c-1.4,0-2.5-0.5-3.3-1.4s-1.2-2.2-1.2-3.8c0-1.5,0.4-2.8,1.3-3.8s2-1.5,3.3-1.5c1.3,0,2.3,0.4,3,1.3
			s1.1,2,1.1,3.5V662.6z M444.9,661.3c0-0.9-0.2-1.7-0.7-2.2c-0.4-0.5-1.1-0.8-1.9-0.8c-0.7,0-1.4,0.3-1.9,0.8
			c-0.6,0.5-0.9,1.3-1,2.2H444.9z"/>
		<path class="st16" d="M463.3,666.7c-1,0.6-2.3,0.8-3.9,0.8c-2,0-3.6-0.6-4.8-1.9c-1.2-1.3-1.8-3-1.8-5c0-2.2,0.7-4,2-5.4
			c1.3-1.4,3-2.1,5.2-2.1c1.3,0,2.4,0.2,3.3,0.6v1.7c-1-0.6-2.1-0.8-3.3-0.8c-1.7,0-3,0.6-4,1.7c-1,1.1-1.5,2.6-1.5,4.3
			c0,1.7,0.5,3,1.4,4.1c0.9,1.1,2.2,1.6,3.7,1.6c1.4,0,2.6-0.3,3.7-0.9V666.7z"/>
		<path class="st16" d="M474,667.3h-1.5v-1.6h0c-0.7,1.2-1.7,1.8-3.1,1.8c-2.4,0-3.6-1.4-3.6-4.3v-6h1.5v5.7c0,2.2,0.8,3.2,2.5,3.2
			c0.8,0,1.5-0.3,2-0.9c0.5-0.6,0.8-1.4,0.8-2.3v-5.8h1.5V667.3z"/>
		<path class="st16" d="M476.6,665.2c0.9,0.6,1.8,1,2.9,1c1.4,0,2.1-0.5,2.1-1.4c0-0.4-0.2-0.8-0.5-1c-0.3-0.3-0.9-0.6-1.8-0.9
			c-1.1-0.4-1.8-0.9-2.2-1.3c-0.4-0.4-0.5-1-0.5-1.6c0-0.9,0.4-1.6,1.1-2.1s1.6-0.8,2.7-0.8c0.9,0,1.6,0.2,2.3,0.5v1.6
			c-0.7-0.5-1.6-0.7-2.5-0.7c-0.6,0-1.1,0.1-1.4,0.4s-0.6,0.6-0.6,1s0.1,0.8,0.4,1c0.3,0.2,0.8,0.5,1.7,0.9c1.1,0.4,1.9,0.9,2.3,1.3
			c0.4,0.4,0.6,1,0.6,1.6c0,0.9-0.4,1.6-1.1,2.1c-0.7,0.5-1.7,0.8-2.8,0.8c-1,0-1.9-0.2-2.7-0.6V665.2z"/>
		<path class="st16" d="M490.2,667.2c-0.4,0.2-0.9,0.3-1.5,0.3c-1.7,0-2.6-1-2.6-2.9v-6h-1.7v-1.3h1.7v-2.5l1.5-0.5v3h2.5v1.3h-2.5
			v5.7c0,0.7,0.1,1.2,0.3,1.5c0.2,0.3,0.6,0.4,1.1,0.4c0.4,0,0.8-0.1,1-0.3V667.2z"/>
		<path class="st16" d="M491.6,662.4c0-1.7,0.5-3,1.4-3.9c0.9-1,2.1-1.4,3.7-1.4c1.5,0,2.6,0.5,3.5,1.4c0.8,0.9,1.3,2.2,1.3,3.8
			c0,1.6-0.5,2.9-1.4,3.8s-2.1,1.4-3.6,1.4c-1.4,0-2.6-0.5-3.5-1.4C492,665.2,491.6,663.9,491.6,662.4z M493.1,662.3
			c0,1.2,0.3,2.1,0.9,2.8s1.4,1.1,2.5,1.1c1.1,0,1.9-0.3,2.4-1c0.6-0.7,0.9-1.7,0.9-2.9c0-1.3-0.3-2.3-0.9-2.9c-0.6-0.7-1.4-1-2.4-1
			c-1,0-1.9,0.4-2.5,1.1C493.4,660.1,493.1,661.1,493.1,662.3z"/>
		<path class="st16" d="M518.1,667.3h-1.5v-5.7c0-1.2-0.2-2-0.5-2.5c-0.4-0.5-0.9-0.7-1.8-0.7c-0.7,0-1.3,0.3-1.8,1
			c-0.5,0.6-0.7,1.4-0.7,2.3v5.7h-1.5v-6c0-2-0.8-3-2.3-3c-0.7,0-1.3,0.3-1.8,0.9c-0.5,0.6-0.7,1.4-0.7,2.3v5.7H504v-10h1.5v1.6h0
			c0.7-1.2,1.7-1.8,3.1-1.8c0.7,0,1.2,0.2,1.8,0.6c0.5,0.4,0.9,0.9,1.1,1.5c0.7-1.4,1.9-2.1,3.3-2.1c2.2,0,3.3,1.4,3.3,4.1V667.3z"
			/>
		<path class="st16" d="M529.1,662.6H522c0,1.2,0.3,2,0.9,2.7c0.6,0.6,1.4,0.9,2.4,0.9c1.1,0,2.2-0.4,3.1-1.1v1.4
			c-0.9,0.7-2,1-3.5,1c-1.4,0-2.5-0.5-3.3-1.4s-1.2-2.2-1.2-3.8c0-1.5,0.4-2.8,1.3-3.8s2-1.5,3.3-1.5c1.3,0,2.3,0.4,3,1.3
			s1.1,2,1.1,3.5V662.6z M527.6,661.3c0-0.9-0.2-1.7-0.7-2.2c-0.4-0.5-1.1-0.8-1.9-0.8c-0.7,0-1.4,0.3-1.9,0.8
			c-0.6,0.5-0.9,1.3-1,2.2H527.6z"/>
		<path class="st16" d="M536.7,658.8c-0.3-0.2-0.7-0.3-1.2-0.3c-0.7,0-1.3,0.3-1.7,1c-0.5,0.7-0.7,1.6-0.7,2.6v5.1h-1.5v-10h1.5v2.1
			h0c0.2-0.7,0.6-1.3,1-1.7s1-0.6,1.6-0.6c0.4,0,0.8,0,1,0.1V658.8z"/>
		<path class="st16" d="M543.3,667.3v-14h3.8c4.9,0,7.4,2.3,7.4,6.8c0,2.2-0.7,3.9-2,5.2s-3.2,2-5.5,2H543.3z M544.9,654.6v11.2h2.1
			c1.9,0,3.3-0.5,4.4-1.5c1-1,1.6-2.4,1.6-4.2c0-3.6-1.9-5.5-5.8-5.5H544.9z"/>
		<path class="st16" d="M557.3,658c1-0.6,2.1-1,3.4-1c2.3,0,3.5,1.2,3.5,3.7v6.5h-1.5v-1.6h-0.1c-0.7,1.2-1.7,1.8-3.1,1.8
			c-1,0-1.8-0.3-2.3-0.8c-0.6-0.5-0.9-1.2-0.9-2.1c0-1.9,1.1-2.9,3.3-3.2l3-0.4c0-1.7-0.7-2.6-2.1-2.6c-1.2,0-2.3,0.4-3.3,1.2V658z
			 M560.2,662.5c-0.9,0.1-1.5,0.3-1.8,0.6s-0.5,0.8-0.5,1.4c0,0.5,0.2,0.9,0.5,1.2c0.4,0.3,0.8,0.5,1.4,0.5c0.8,0,1.5-0.3,2-0.9
			c0.5-0.6,0.8-1.3,0.8-2.1v-1L560.2,662.5z"/>
		<path class="st16" d="M571.8,667.2c-0.4,0.2-0.9,0.3-1.5,0.3c-1.7,0-2.6-1-2.6-2.9v-6H566v-1.3h1.7v-2.5l1.5-0.5v3h2.5v1.3h-2.5
			v5.7c0,0.7,0.1,1.2,0.3,1.5c0.2,0.3,0.6,0.4,1.1,0.4c0.4,0,0.8-0.1,1-0.3V667.2z"/>
		<path class="st16" d="M574.2,658c1-0.6,2.1-1,3.4-1c2.3,0,3.5,1.2,3.5,3.7v6.5h-1.5v-1.6h-0.1c-0.7,1.2-1.7,1.8-3.1,1.8
			c-1,0-1.8-0.3-2.3-0.8c-0.6-0.5-0.9-1.2-0.9-2.1c0-1.9,1.1-2.9,3.3-3.2l3-0.4c0-1.7-0.7-2.6-2.1-2.6c-1.2,0-2.3,0.4-3.3,1.2V658z
			 M577.1,662.5c-0.9,0.1-1.5,0.3-1.8,0.6s-0.5,0.8-0.5,1.4c0,0.5,0.2,0.9,0.5,1.2c0.4,0.3,0.8,0.5,1.4,0.5c0.8,0,1.5-0.3,2-0.9
			c0.5-0.6,0.8-1.3,0.8-2.1v-1L577.1,662.5z"/>
		<path class="st16" d="M590.5,661.9v5.3H589v-14h3.8c1.5,0,2.6,0.4,3.4,1.1c0.8,0.7,1.2,1.8,1.2,3.1c0,1.4-0.5,2.5-1.5,3.3
			c-1,0.8-2.2,1.2-3.6,1.2H590.5z M590.5,654.7v5.8h1.8c1.2,0,2-0.3,2.6-0.8c0.6-0.5,0.9-1.3,0.9-2.2c0-1.9-1.1-2.8-3.3-2.8H590.5z"
			/>
		<path class="st16" d="M599.9,667.3v-14.8h1.5v14.8H599.9z"/>
		<path class="st16" d="M605,658c1-0.6,2.1-1,3.4-1c2.3,0,3.5,1.2,3.5,3.7v6.5h-1.5v-1.6h-0.1c-0.7,1.2-1.7,1.8-3.1,1.8
			c-1,0-1.8-0.3-2.3-0.8c-0.6-0.5-0.9-1.2-0.9-2.1c0-1.9,1.1-2.9,3.3-3.2l3-0.4c0-1.7-0.7-2.6-2.1-2.6c-1.2,0-2.3,0.4-3.3,1.2V658z
			 M607.8,662.5c-0.9,0.1-1.5,0.3-1.8,0.6s-0.5,0.8-0.5,1.4c0,0.5,0.2,0.9,0.5,1.2c0.4,0.3,0.8,0.5,1.4,0.5c0.8,0,1.5-0.3,2-0.9
			c0.5-0.6,0.8-1.3,0.8-2.1v-1L607.8,662.5z"/>
		<path class="st16" d="M619.4,667.2c-0.4,0.2-0.9,0.3-1.5,0.3c-1.7,0-2.6-1-2.6-2.9v-6h-1.7v-1.3h1.7v-2.5l1.5-0.5v3h2.5v1.3h-2.5
			v5.7c0,0.7,0.1,1.2,0.3,1.5c0.2,0.3,0.6,0.4,1.1,0.4c0.4,0,0.8-0.1,1-0.3V667.2z"/>
		<path class="st16" d="M626.4,653.8c-0.3-0.2-0.7-0.3-1.1-0.3c-1.1,0-1.7,0.7-1.7,2.2v1.6h2.3v1.3h-2.3v8.7h-1.5v-8.7h-1.7v-1.3
			h1.7v-1.6c0-1.1,0.3-1.9,0.9-2.5s1.3-0.9,2.2-0.9c0.5,0,0.9,0.1,1.1,0.2V653.8z"/>
		<path class="st16" d="M627.1,662.4c0-1.7,0.5-3,1.4-3.9c0.9-1,2.1-1.4,3.7-1.4c1.5,0,2.6,0.5,3.5,1.4c0.8,0.9,1.3,2.2,1.3,3.8
			c0,1.6-0.5,2.9-1.4,3.8s-2.1,1.4-3.6,1.4c-1.4,0-2.6-0.5-3.5-1.4C627.5,665.2,627.1,663.9,627.1,662.4z M628.6,662.3
			c0,1.2,0.3,2.1,0.9,2.8s1.4,1.1,2.5,1.1c1.1,0,1.9-0.3,2.4-1c0.6-0.7,0.9-1.7,0.9-2.9c0-1.3-0.3-2.3-0.9-2.9c-0.6-0.7-1.4-1-2.4-1
			c-1,0-1.9,0.4-2.5,1.1C628.9,660.1,628.6,661.1,628.6,662.3z"/>
		<path class="st16" d="M644.6,658.8c-0.3-0.2-0.7-0.3-1.2-0.3c-0.7,0-1.3,0.3-1.7,1c-0.5,0.7-0.7,1.6-0.7,2.6v5.1h-1.5v-10h1.5v2.1
			h0c0.2-0.7,0.6-1.3,1-1.7s1-0.6,1.6-0.6c0.4,0,0.8,0,1,0.1V658.8z"/>
		<path class="st16" d="M660.4,667.3h-1.5v-5.7c0-1.2-0.2-2-0.5-2.5c-0.4-0.5-0.9-0.7-1.8-0.7c-0.7,0-1.3,0.3-1.8,1
			c-0.5,0.6-0.7,1.4-0.7,2.3v5.7h-1.5v-6c0-2-0.8-3-2.3-3c-0.7,0-1.3,0.3-1.8,0.9c-0.5,0.6-0.7,1.4-0.7,2.3v5.7h-1.5v-10h1.5v1.6h0
			c0.7-1.2,1.7-1.8,3.1-1.8c0.7,0,1.2,0.2,1.8,0.6c0.5,0.4,0.9,0.9,1.1,1.5c0.7-1.4,1.9-2.1,3.3-2.1c2.2,0,3.3,1.4,3.3,4.1V667.3z"
			/>
	</g>
	<g class="st13">
		<path class="st16" d="M975.6,668.7h-4v12.6h-1.5v-12.6h-4v-1.4h9.6V668.7z"/>
		<path class="st16" d="M975.8,672c1-0.6,2.1-1,3.4-1c2.3,0,3.5,1.2,3.5,3.7v6.5h-1.5v-1.6h-0.1c-0.7,1.2-1.7,1.8-3.1,1.8
			c-1,0-1.8-0.3-2.3-0.8c-0.6-0.5-0.9-1.2-0.9-2.1c0-1.9,1.1-2.9,3.3-3.2l3-0.4c0-1.7-0.7-2.6-2.1-2.6c-1.2,0-2.3,0.4-3.3,1.2V672z
			 M978.7,676.5c-0.9,0.1-1.5,0.3-1.8,0.6s-0.5,0.8-0.5,1.4c0,0.5,0.2,0.9,0.5,1.2c0.4,0.3,0.8,0.5,1.4,0.5c0.8,0,1.5-0.3,2-0.9
			s0.8-1.3,0.8-2.1v-1L978.7,676.5z"/>
		<path class="st16" d="M990.8,672.8c-0.3-0.2-0.7-0.3-1.2-0.3c-0.7,0-1.3,0.3-1.7,1s-0.7,1.6-0.7,2.6v5.1h-1.5v-10h1.5v2.1h0
			c0.2-0.7,0.6-1.3,1-1.7s1-0.6,1.6-0.6c0.4,0,0.8,0,1,0.1V672.8z"/>
		<path class="st16" d="M1000.8,680.5c0,3.7-1.7,5.5-5.2,5.5c-1.2,0-2.3-0.2-3.2-0.7v-1.5c1.1,0.6,2.2,0.9,3.2,0.9
			c2.5,0,3.7-1.3,3.7-4v-1.1h0c-0.8,1.3-1.9,1.9-3.5,1.9c-1.3,0-2.3-0.4-3-1.3c-0.8-0.9-1.1-2.1-1.1-3.6c0-1.7,0.4-3.1,1.2-4.1
			c0.8-1,1.9-1.5,3.3-1.5c1.4,0,2.4,0.5,3,1.6h0v-1.4h1.5V680.5z M999.3,675.2c0-0.8-0.3-1.5-0.8-2.1c-0.6-0.6-1.2-0.9-2-0.9
			c-1,0-1.8,0.4-2.4,1.1s-0.9,1.8-0.9,3.1c0,1.1,0.3,2,0.8,2.7c0.6,0.7,1.3,1,2.2,1c0.9,0,1.6-0.3,2.2-1c0.6-0.6,0.9-1.5,0.9-2.5
			V675.2z"/>
		<path class="st16" d="M1012.1,676.6h-7.1c0,1.2,0.3,2,0.9,2.7c0.6,0.6,1.4,0.9,2.4,0.9c1.1,0,2.2-0.4,3.1-1.1v1.4
			c-0.9,0.7-2,1-3.5,1c-1.4,0-2.5-0.5-3.3-1.4s-1.2-2.2-1.2-3.8c0-1.5,0.4-2.8,1.3-3.8s2-1.5,3.3-1.5c1.3,0,2.3,0.4,3,1.3
			c0.7,0.8,1.1,2,1.1,3.5V676.6z M1010.5,675.3c0-0.9-0.2-1.7-0.7-2.2c-0.4-0.5-1.1-0.8-1.9-0.8c-0.7,0-1.4,0.3-1.9,0.8
			c-0.6,0.5-0.9,1.3-1,2.2H1010.5z"/>
		<path class="st16" d="M1019.1,681.2c-0.4,0.2-0.9,0.3-1.5,0.3c-1.7,0-2.6-1-2.6-2.9v-6h-1.7v-1.3h1.7v-2.5l1.5-0.5v3h2.5v1.3h-2.5
			v5.7c0,0.7,0.1,1.2,0.3,1.5c0.2,0.3,0.6,0.4,1.1,0.4c0.4,0,0.8-0.1,1-0.3V681.2z"/>
	</g>
	<g class="st13">
		<path class="st16" d="M396.8,810.7h-1.7c-0.5,1.3-1,2.3-1.4,2.8c1.4,0.6,2.1,1,2.3,1.1l-0.4,0.8c-0.9-0.5-1.7-0.8-2.5-1.2
			c-1.2,1.1-2.8,1.9-4.6,2.3l-0.5-0.8c1.8-0.4,3.3-1.1,4.3-1.9c-0.9-0.3-1.9-0.7-3.2-1.1c0.4-0.6,0.9-1.3,1.4-2.1H388v-0.9h2.9
			l0.9-1.7l0.8,0.4c-0.2,0.5-0.5,0.9-0.7,1.2h2.4c0.1-0.3,0.2-0.6,0.2-0.8l0.9,0.2l-0.1,0.7h1.5V810.7z M391.1,805.6
			c-0.8,1-1.6,1.9-2.4,2.5l-0.7-0.6c0.8-0.6,1.6-1.4,2.4-2.4L391.1,805.6z M396.7,804.5H393v3.4h-1v-3.4h-4v-0.9h4v-3.4h1v3.4h3.7
			V804.5z M391.2,802.4l-0.7,0.5c-0.7-0.9-1.2-1.5-1.7-1.9l0.7-0.6C390.2,801.1,390.7,801.7,391.2,802.4z M394.1,810.7h-2.6
			c-0.3,0.5-0.6,1-1.1,1.6c0.7,0.2,1.5,0.5,2.4,0.9C393.3,812.5,393.8,811.7,394.1,810.7z M396.3,801.1c-0.6,0.7-1.2,1.3-1.7,1.8
			l-0.7-0.6c0.6-0.5,1.1-1.1,1.7-1.8L396.3,801.1z M396.3,807l-0.7,0.6c-0.4-0.6-1-1.3-1.7-1.9l0.7-0.5
			C395.3,805.7,395.8,806.3,396.3,807z M404.3,815.9l-0.6,0.7c-1.5-0.9-2.7-2-3.7-3.3c-1.2,1.4-2.5,2.5-4,3.2l-0.7-0.7
			c1.6-0.8,3-1.9,4.1-3.3c-0.9-1.7-1.4-3.3-1.6-4.8l0.9-0.3c0.3,1.8,0.7,3.1,1.3,4.1c1-1.8,1.6-4.4,1.9-7.6h-2.9
			c-0.5,1.7-1.2,3.2-2,4.5l-0.7-0.5c1.2-2,2.1-4.5,2.7-7.8l0.8,0.3c-0.1,0.8-0.3,1.7-0.6,2.6h4.8v1h-1.2c-0.3,3.7-1.1,6.5-2.3,8.5
			C401.6,813.9,402.8,815,404.3,815.9z"/>
		<path class="st16" d="M411.9,808.3c-0.8,0.4-1.4,0.7-1.9,0.9v5.9c0,0.4-0.1,0.7-0.3,0.9c-0.2,0.2-0.4,0.3-0.7,0.3
			c-0.3,0-0.9,0-1.8,0l-0.3-1c0.4,0,1,0.1,1.7,0.1c0.2,0,0.3-0.1,0.3-0.4v-5.5c-1.1,0.4-1.8,0.6-2.2,0.8l-0.3-0.9
			c0.9-0.3,1.7-0.6,2.5-0.9v-4.3h-2.4v-0.9h2.4v-3.2h1v3.2h1.7v0.9h-1.7v3.9c0.4-0.2,1-0.5,1.7-0.8L411.9,808.3z M422.7,808h-4.2
			v2.3h3.3v5.9h-1v-1.1h-5.7v1.1h-1v-6h3.3V808h-3.9c-0.2,3.1-0.8,5.7-1.9,7.9l-0.8-0.6c1.2-2.4,1.8-5.1,1.8-8.1v-6.7h9.2v4.3h-8.2
			v2.3h3.9v-1.6h0.9v1.6h4.2V808z M420.8,803.9v-2.4h-7.2v2.4H420.8z M420.9,814.3v-3h-5.7v3H420.9z"/>
		<path class="st16" d="M428.5,807.3l-0.7,0.7c-0.9-1-1.8-1.9-2.7-2.6l0.7-0.7C427,805.7,427.9,806.6,428.5,807.3z M428.6,810.3
			c-0.8,2.3-1.8,4.3-2.8,6l-0.8-0.6c1.2-2.1,2.1-4.1,2.8-5.9L428.6,810.3z M428.9,802.5l-0.7,0.7c-0.9-1-1.8-1.8-2.8-2.4l0.6-0.7
			C427.1,800.7,428,801.5,428.9,802.5z M435.3,804.5h-2.8v3.3h1.9v6.4h-0.9v-0.8h-3v1.2h-0.9v-6.9h2.1v-3.3H429v-0.9h2.7v-3.4h0.9
			v3.4h2.8V804.5z M433.5,812.5v-3.8h-3v3.8H433.5z M440.7,815c0,0.3-0.1,0.6-0.2,0.8c-0.1,0.2-0.3,0.4-0.5,0.4
			c-0.2,0.1-0.6,0.1-1.2,0.1c-0.2,0-0.5,0-0.9,0l-0.4-1c0.3,0,0.6,0,1.1,0c0.6,0,0.9,0,1-0.1s0.1-0.2,0.1-0.3v-6.2
			c-0.7,0.7-1.5,1.4-2.3,2.1l-0.4-0.5c-0.3,2.7-0.9,4.7-1.7,6.1l-0.8-0.6c1.1-2,1.7-4.7,1.7-8v-7.2h4.5V815z M439.7,807.5v-1.2
			l-0.7,0.6c-0.6-1-1.2-1.9-2-2.7v3.7c0,0.7,0,1.4-0.1,2.1C437.9,809.3,438.8,808.4,439.7,807.5z M439.7,806v-4.4h-2.6v2.2l0.5-0.5
			C438.5,804.2,439.2,805.1,439.7,806z"/>
		<path class="st16" d="M453.5,809.4l-0.7,0.7c-0.9-1-1.9-1.9-3-2.7l0.7-0.7C451.8,807.6,452.8,808.5,453.5,809.4z"/>
		<path class="st16" d="M478.4,815.6l-0.7,0.7c-3.9-2.7-6.3-6.4-7.4-11.2c-0.8,4.3-3.2,8.1-7.4,11.2l-0.7-0.8c1.4-1,2.7-2.2,3.9-3.6
			c1.2-1.4,2.1-3,2.7-4.8s0.9-4.1,1-7h1c0,3.4,0.6,6.5,2,9.1C474.2,811.8,476,814,478.4,815.6z"/>
		<path class="st16" d="M497,815.5h-16.2v-1h7.6v-12.6h-6.8v-1h14.6v1h-6.8v12.6h7.6V815.5z"/>
		<path class="st16" d="M508.1,805h-3.8c0,0.2-0.1,0.3-0.2,0.5c1.5,0.7,2.8,1.5,3.9,2.3l-0.6,0.7c-1.2-0.9-2.4-1.6-3.7-2.3
			c-0.9,1.4-2.2,2.4-3.8,2.9l-0.7-0.8c2.1-0.7,3.5-1.8,4.1-3.4h-3.6v-0.9h3.9c0.1-0.4,0.2-1,0.2-1.8h-1.9c-0.5,0.5-0.9,1-1.4,1.4
			l-0.8-0.6c1.2-0.9,2.1-1.9,2.7-3l0.9,0.3c-0.3,0.5-0.6,0.9-0.7,1h5.1v0.9h-2.9c-0.1,0.7-0.1,1.3-0.2,1.8h3.6V805z M513.4,816.3h-1
			v-1.1h-10.2v1.2h-1v-7.3h12.1V816.3z M512.5,811.7V810h-10.2v1.7H512.5z M512.5,814.3v-1.7h-10.2v1.7H512.5z M515,807.4h-6.1v-6
			h6.1V807.4z M514,806.5v-4.2h-4.2v4.2H514z"/>
		<path class="st16" d="M526.5,805l-0.8,0.6c-0.2-0.4-0.4-0.7-0.7-1.1c-2.2,0.3-4.5,0.5-6.9,0.7l-0.4-0.8c1.1-0.9,2.1-2.3,3-4.2
			l1,0.2c-0.7,1.5-1.5,2.8-2.4,3.8c1.9-0.2,3.6-0.3,5.1-0.5c-0.3-0.5-0.8-1-1.6-1.7l0.8-0.5C525.1,802.8,526,804,526.5,805z
			 M525.3,815.3c0,0.3-0.1,0.6-0.3,0.8c-0.2,0.2-0.5,0.3-0.8,0.4s-0.9,0-1.8,0l-0.4-0.9c0.3,0,0.6,0,0.9,0c0.6,0,1,0,1.2-0.1
			s0.3-0.2,0.3-0.3v-3c-1.8,0.8-3.2,1.4-4.4,1.8l-0.4-0.6c-0.1,1.1-0.4,2.1-0.9,3.1l-0.9-0.5c0.6-1.5,0.9-2.9,0.9-4.4v-5h6.6V815.3z
			 M524.3,811.1v-3.7h-4.7v1.3c1.3,0.2,2.6,0.6,4,1.1l-0.4,0.8c-1.4-0.5-2.6-0.8-3.6-1v1.8c0,0.5,0,1-0.1,1.5
			C520.8,812.6,522.4,812,524.3,811.1z M534,813.2c-0.1,0.9-0.2,1.6-0.4,2.1s-0.4,0.7-0.7,0.8s-0.8,0.2-1.5,0.2l-2.8,0
			c-0.4,0-0.8-0.1-1-0.4c-0.3-0.2-0.4-0.6-0.4-1v-7h0.9v2.7h5.3v0.9h-5.3v3.3c0,0.4,0.2,0.5,0.7,0.5c1.9,0,3,0,3.2,0
			s0.5-0.2,0.6-0.4c0.2-0.2,0.3-0.9,0.4-2L534,813.2z M533.8,807.2h-5.4c-0.3,0-0.6-0.1-0.8-0.4c-0.2-0.2-0.3-0.5-0.3-0.9v-5.8h0.9
			v2.3h5.3v0.9h-5.3v2.4c0,0.3,0.2,0.4,0.5,0.4h5.1V807.2z"/>
		<path class="st16" d="M543,801.4l-6.7,16.3h-1.4l6.7-16.3H543z"/>
		<path class="st16" d="M551.2,804.9h-2.9v0.2c1,1.2,1.9,2.4,2.7,3.7l-0.7,0.8c-0.5-1-1.2-2.1-2-3.1v9.8h-1v-9.1
			c-0.8,1.7-1.7,3.2-2.7,4.5l-0.7-0.8c1.6-2.1,2.7-4.1,3.3-6h-3v-1h3v-3.8h1v3.8h2.9V804.9z M560.3,811.6c0,2-0.1,3.2-0.4,3.8
			c-0.3,0.5-0.9,0.8-1.7,0.8c-0.7,0-1.2-0.1-1.5-0.3c-0.2-0.2-0.4-0.6-0.4-1.2v-13h-3.2v5.4c0,3.8-0.8,6.9-2.4,9.5l-0.7-0.8
			c0.9-1.6,1.5-3,1.7-4.3c0.3-1.3,0.4-3,0.4-5v-5.8h5.2v14c0,0.4,0.2,0.6,0.7,0.6c0.5,0,0.9-0.1,1-0.2c0.1-0.1,0.2-0.5,0.3-1.2
			c0.1-0.7,0.1-1.5,0-2.4L560.3,811.6z"/>
		<path class="st16" d="M578.9,810.9l-0.5,0.9l-1.1-0.4v5h-0.9v-1h-3.7v1h-1v-5.7h4.1c-1.7-0.9-3.1-1.8-4-2.9h-2.2
			c-1,1.1-2.2,2.1-3.8,2.9h3.8v5.7h-1v-1h-3.6v1h-1v-4.9c-0.3,0.1-0.7,0.3-1.1,0.4l-0.4-0.9c2.6-0.8,4.6-1.9,5.8-3.1h-5.7v-0.9h6.5
			c0.4-0.5,0.8-1.1,1.1-1.7l0.9,0.3c-0.2,0.5-0.5,1-0.8,1.4h8.3v0.9h-5.4C574.5,809.1,576.4,810.1,578.9,810.9z M569.5,805h-5.4
			v-4.4h5.4V805z M568.5,804.1v-2.6H565v2.6H568.5z M568.7,814.4v-2.8h-3.6v2.8H568.7z M577.3,805h-5.5v-4.4h5.5V805z M576.3,814.4
			v-2.8h-3.7v2.8H576.3z M576.3,804.1v-2.6h-3.5v2.6H576.3z M576.2,806l-0.6,0.7c-0.5-0.3-1-0.5-1.6-0.7l0.5-0.8
			C575.3,805.5,575.8,805.8,576.2,806z"/>
		<path class="st16" d="M597.3,811.6h-7.5v3.2c0,0.6-0.2,1-0.5,1.2s-0.9,0.3-1.8,0.3c-0.4,0-1,0-1.7-0.1l-0.4-1c1.7,0,2.7,0.1,3,0.1
			c0.1,0,0.2-0.1,0.3-0.2c0.1-0.1,0.1-0.2,0.1-0.3v-3.3h-7.6v-0.9h7.6v-1.2c1.4-0.6,2.7-1.3,3.9-1.9h-9v-0.9h10.8v0.9
			c-1.3,0.8-2.9,1.6-4.7,2.5v0.7h7.5V811.6z M596.9,807.1h-1v-2.3h-13.4v2.3h-1v-3.2h15.3V807.1z M585.9,803.1l-0.9,0.4
			c-0.6-1-1.3-2-2.1-2.9l0.9-0.4C584.8,801.4,585.5,802.4,585.9,803.1z M590.3,803.1l-0.9,0.4c-0.6-1.2-1.2-2.2-1.8-3l0.9-0.4
			C589.5,801.4,590.1,802.4,590.3,803.1z M595.7,800.6c-0.7,1.1-1.5,2-2.3,2.9h-0.1l-0.8-0.5c0.7-0.8,1.5-1.7,2.3-2.8L595.7,800.6z"
			/>
		<path class="st16" d="M612.2,809c-3,1.7-6.8,3.3-11.3,4.8l-0.4-1c4.1-1.4,7.8-3,11.3-4.9L612.2,809z M615,800.6
			c0,3.2-0.1,6.2-0.3,9.2s-0.4,4.7-0.6,5.2s-0.6,0.9-1.1,1c-0.5,0.1-1.2,0.2-2.3,0.2H609l-0.4-1c0.8,0,1.6,0.1,2.3,0.1
			c1,0,1.5,0,1.7-0.1c0.2-0.1,0.3-0.2,0.4-0.4s0.2-0.8,0.3-1.8c0.1-1,0.2-2.8,0.4-5.3c0.1-2.5,0.2-4.6,0.2-6.1h-13.4v-1H615z
			 M609,807.3l-0.8,0.7c-1.5-1.5-3.3-2.9-5.5-4.3l0.7-0.8C605.7,804.3,607.5,805.8,609,807.3z"/>
		<path class="st16" d="M624.5,815c0,0.4-0.1,0.7-0.3,0.9s-0.7,0.4-1.4,0.4c-0.4,0-0.8,0-1.2-0.1l-0.3-1c0.5,0.1,1,0.1,1.5,0.1
			c0.4,0,0.6,0,0.7-0.1c0.1-0.1,0.2-0.2,0.2-0.5V810h-3.2c-0.2,2.7-0.7,4.8-1.4,6.4l-0.8-0.6c0.9-2.1,1.4-4.8,1.4-8.2v-6.9h4.9V815z
			 M623.6,809.1v-3.4h-3l-0.1,3.4H623.6z M623.6,804.7v-3.2h-3v3.2H623.6z M634.5,815.6l-0.6,0.8c-1.3-0.7-2.4-1.5-3.2-2.3
			c-0.7,0.7-1.6,1.4-2.7,2.2l-0.7-0.7c1.2-0.8,2.2-1.5,2.8-2.2c-1.2-1.4-2-3.4-2.6-5.8H627v8.7h-0.9v-15.8h7.9
			c-0.1,1.9-0.3,3.2-0.5,3.8c-0.2,0.6-0.5,0.9-1,1.1c-0.5,0.2-1.3,0.2-2.6,0.2l-0.3-1c0.3,0,0.7,0,1.1,0c0.7,0,1.2,0,1.5-0.1
			c0.3-0.1,0.4-0.3,0.5-0.6c0.1-0.3,0.2-1.2,0.3-2.5h-6v5.3h6.7c-0.3,2.8-1,5.1-2.3,6.7C632.2,814.3,633.2,815,634.5,815.6z
			 M632.7,807.7h-4.2c0.5,2.1,1.3,3.8,2.3,5C631.8,811.4,632.4,809.8,632.7,807.7z"/>
		<path class="st16" d="M653,807.9l-0.5,0.9c-2.8-0.6-5.4-1.4-7.6-2.4c-2.2,1-4.7,1.8-7.6,2.4l-0.5-0.9c2.8-0.6,5.1-1.3,7-2.1
			c-1.1-0.6-2.3-1.4-3.7-2.5c-1.1,0.7-2,1.2-2.6,1.5l-0.7-0.8c2.4-1.2,4.3-2.5,5.5-4l0.9,0.5c-0.2,0.3-0.5,0.6-0.8,0.9h8.4v0.9
			c-1.8,1.5-3.5,2.7-4.9,3.5C648.1,806.7,650.4,807.4,653,807.9z M651.5,809.6c0,1-0.1,2.2-0.3,3.5c-0.2,1.4-0.4,2.2-0.6,2.6
			c-0.2,0.3-0.5,0.5-0.8,0.6s-0.9,0.1-1.8,0.1c-0.4,0-0.7,0-1.1,0l-0.3-0.9c0.3,0,0.7,0,1.1,0c1.2,0,1.9-0.1,2.1-0.2
			s0.3-0.8,0.5-1.8c0.2-1.1,0.3-2.1,0.3-2.9h-5.7c-0.7,3.1-3.1,5.1-7,6l-0.6-0.9c3.7-0.8,5.9-2.6,6.6-5.1h-5.6v-0.9h5.8
			c0.1-0.6,0.2-1.2,0.3-2l1,0.1c-0.1,0.7-0.1,1.4-0.3,2H651.5z M649.4,802.4h-8c-0.1,0.1-0.3,0.3-0.5,0.4c1.3,1,2.6,1.9,3.9,2.5
			C646.3,804.6,647.8,803.6,649.4,802.4z"/>
	</g>
	<g class="st13">
		<path class="st14" d="M784.3,347.1c0,0.3-0.1,0.5-0.2,0.7c-0.1,0.2-0.3,0.3-0.5,0.4c-0.2,0.1-0.7,0.1-1.4,0.1c-0.4,0-1,0-1.8,0
			l-0.4-0.8c0.5,0,1.5,0,3.1,0c0.1,0,0.2,0,0.3-0.1c0.1-0.1,0.1-0.2,0.1-0.3v-9.5h-5.1l-0.2,1.3c2.1,2.2,3.7,4.3,4.8,6.2l-0.7,0.5
			c-1-1.9-2.5-3.9-4.4-5.8c-0.6,2.3-1.9,4.3-4.1,6l-0.7-0.5c2.6-2,4-4.6,4.3-7.7h-4.9v10.8h-0.9v-11.6h5.9c0.1-0.8,0.1-1.7,0.1-2.7
			l0.9,0c0,0.5,0,1.4-0.1,2.7h5.9V347.1z"/>
		<path class="st14" d="M801.4,343.2L801,344c-0.5-0.2-1.2-0.4-1.9-0.8v5.1h-0.8v-1h-8v0.9h-0.8v-5.1c-0.5,0.3-1.1,0.5-1.8,0.8
			l-0.5-0.7c3-1.1,5.5-2.6,7.3-4.5l0.7,0.4l-0.4,0.4C796.3,341,798.5,342.2,801.4,343.2z M793.3,337.6c-1.1,1.1-2.8,2.2-5,3.4
			l-0.5-0.7c2.1-1.1,3.7-2.2,4.9-3.3L793.3,337.6z M800.7,338.5h-0.9v-2.3h-11.1v2.1h-0.9v-2.9h6.2c-0.1-0.5-0.3-0.9-0.5-1.3
			l0.8-0.2c0.3,0.5,0.5,1,0.6,1.5h5.7V338.5z M798.4,342.9c-1.7-0.8-3.1-1.8-4.3-2.8c-1.2,1-2.6,1.9-4.2,2.8H798.4z M798.2,346.6
			v-2.8h-8v2.8H798.2z M800.8,340.3l-0.5,0.7c-1.5-1.2-3.2-2.3-5-3.2l0.5-0.7C797.6,338,799.2,339.1,800.8,340.3z"/>
		<path class="st14" d="M814,344.3h-10.5v-0.8H814V344.3z M817.3,340c-0.1,1.3-0.2,2.6-0.3,4s-0.3,2.2-0.4,2.6
			c-0.1,0.4-0.3,0.7-0.5,1c-0.2,0.3-0.5,0.4-0.8,0.5c-0.3,0.1-0.8,0.1-1.5,0.1c-0.7,0-1.4,0-2.1,0l-0.4-0.8c0.9,0,1.6,0,2,0
			c1,0,1.5-0.1,1.8-0.2c0.2-0.1,0.4-0.3,0.6-0.5s0.3-0.8,0.4-1.8s0.2-2.3,0.3-4.1h-10.7v-6.8h0.9v2.4h9.3v0.8h-9.3v2.8H817.3z"/>
		<path class="st14" d="M823.9,334.2c-0.2,0.6-0.5,1.2-0.8,2l-0.5,1.1v11h-0.9v-9.4c-0.5,0.8-1.1,1.5-1.7,2.2l-0.5-0.8
			c1.4-1.6,2.6-3.7,3.5-6.3L823.9,334.2z M834,344.2l-0.6,0.7c-1.9-1.7-3.4-3.8-4.4-6.4v6.1h3v0.8h-3v2.8h-0.9v-2.8h-3.1v-0.8h3.1
			v-6.1c-1.1,2.6-2.5,4.8-4.3,6.4l-0.7-0.6c1.9-1.7,3.4-4,4.5-6.8h-3.9v-0.9h4.3V334h0.9v2.7h4.6v0.9h-4.1
			C830.6,340.4,832.1,342.6,834,344.2z"/>
		<path class="st14" d="M840,344.2c-1.3,0.5-2.5,0.9-3.8,1.2l-0.2-0.8c1.4-0.4,2.7-0.8,3.9-1.2L840,344.2z M841.4,340.8
			c0,1.4,0,2.8-0.1,4.2c-0.1,1.3-0.2,2.1-0.3,2.4c-0.1,0.2-0.2,0.4-0.4,0.6s-0.7,0.2-1.5,0.2h-1l-0.3-0.8c0.5,0,0.9,0,1.3,0
			c0.6,0,0.9,0,1-0.1s0.2-0.2,0.2-0.3c0-0.1,0.1-0.8,0.2-2c0.1-1.2,0.1-2.3,0.1-3.2h-4l0.4-5.6l0.8,0.1l-0.3,4.7h2.2l0.4-5.7h-3.9
			v-0.8h4.8l-0.4,6.4H841.4z M850.5,339l-0.6,0.7c-2-1.5-3.3-2.9-4-4.2c-0.9,1.3-2.2,2.7-3.8,4.2l-0.6-0.6c2-1.7,3.5-3.4,4.3-5.1
			l0.8,0.3c0,0.1-0.1,0.2-0.2,0.5C847.1,336.1,848.5,337.5,850.5,339z M850.3,347.9h-8.6V347h5.1c0.8-1.9,1.5-4.1,2-6.3l0.8,0.2
			c-0.6,2.4-1.3,4.4-2,6.1h2.6V347.9z M844.2,346l-0.8,0.2c-0.2-1.5-0.6-3.2-1.3-5.1l0.8-0.2C843.5,342.8,844,344.5,844.2,346z
			 M848.4,339.9h-4.9V339h4.9V339.9z M846.5,345.8l-0.8,0.2c-0.1-1.6-0.3-3.3-0.8-5.3l0.8-0.2C846.2,342.6,846.5,344.4,846.5,345.8z
			"/>
	</g>
</g>
</svg>
